<svg width="22" height="22" viewBox="0 0 22 22" fill="none" xmlns="http://www.w3.org/2000/svg">
<path fill-rule="evenodd" clip-rule="evenodd" d="M11.1486 1.0318C10.5515 1.151 9.98974 1.69549 9.83579 2.30424C9.64931 3.04161 9.94215 3.81993 10.561 4.2318C10.6772 4.30909 10.8486 4.39435 10.9419 4.42124L11.1116 4.47016V5.28395V6.09773L8.21275 6.10837L5.31392 6.11901L5.06631 6.24454C4.79699 6.38105 4.60888 6.57618 4.47319 6.85969C4.39452 7.02408 4.38904 7.08833 4.37871 7.96843L4.36771 8.90268L3.57123 8.89101C2.60698 8.87694 2.46265 8.90645 2.23107 9.16514C2.1483 9.25758 2.06274 9.39935 2.04093 9.48019C1.98686 9.68077 1.98612 14.4137 2.04015 14.614C2.08919 14.7959 2.26429 15.003 2.46032 15.111C2.60413 15.1902 2.65731 15.1945 3.48931 15.1945H4.3666L4.37815 16.1288C4.38926 17.0308 4.39278 17.0696 4.48033 17.2527C4.65388 17.6159 4.97268 17.8691 5.36366 17.9544C5.64206 18.0152 17.3218 18.0152 17.6002 17.9544C17.9912 17.8691 18.3072 17.6182 18.4825 17.2537C18.5714 17.0689 18.5746 17.0342 18.5857 16.1288L18.5973 15.1945H19.4746C20.3066 15.1945 20.3597 15.1902 20.5035 15.111C20.6931 15.0065 20.8851 14.785 20.9137 14.6377C20.9257 14.5761 20.95 14.5164 20.9677 14.5051C20.9855 14.4938 21 13.3721 21 12.006C21 10.5924 20.986 9.53625 20.9675 9.54807C20.9496 9.55943 20.925 9.51768 20.9129 9.45522C20.9007 9.39275 20.8214 9.26413 20.7366 9.16937C20.5007 8.90588 20.3606 8.87686 19.3926 8.89101L18.5962 8.90268L18.5852 7.96843C18.5748 7.08833 18.5693 7.02408 18.4907 6.85969C18.355 6.57618 18.1669 6.38105 17.8976 6.24454L17.6499 6.11901L14.7511 6.10837L11.8523 6.09773V5.28395V4.47016L12.0219 4.42124C12.5217 4.27717 12.9846 3.76219 13.1351 3.18281C13.4504 1.96955 12.3609 0.789846 11.1486 1.0318ZM11.2155 1.76619C11.032 1.819 10.9829 1.84981 10.7843 2.03685C10.4132 2.38622 10.3859 3.01514 10.724 3.42194C11.2227 4.02176 12.1879 3.82649 12.4298 3.07684C12.5059 2.8408 12.484 2.51523 12.3776 2.30039C12.2891 2.12177 12.0425 1.88146 11.8729 1.80852C11.6879 1.7289 11.4077 1.71086 11.2155 1.76619ZM5.37051 6.89508C5.29956 6.9339 5.20397 7.02225 5.15815 7.09135L5.07482 7.21707V12.0402V16.8634L5.15464 16.9963C5.20093 17.0735 5.29804 17.159 5.38611 17.2001C5.53195 17.2684 5.76601 17.2711 11.4819 17.2711C17.1978 17.2711 17.4319 17.2684 17.5778 17.2001C17.6658 17.159 17.7629 17.0735 17.8092 16.9963L17.889 16.8634V12.0402V7.21707L17.8057 7.09135C17.7599 7.02225 17.6643 6.9339 17.5933 6.89508C17.4693 6.82717 17.2333 6.82446 11.4819 6.82446C5.73053 6.82446 5.49458 6.82717 5.37051 6.89508ZM2.01838 12.0486C2.01838 13.4223 2.02301 13.9843 2.02867 13.2974C2.0343 12.6106 2.0343 11.4866 2.02867 10.7998C2.02301 10.1129 2.01838 10.6749 2.01838 12.0486ZM2.74901 9.65389C2.71542 9.68847 2.70457 10.2739 2.70457 12.0549C2.70457 14.3444 2.70657 14.4113 2.77619 14.4496C2.87089 14.5018 4.09372 14.5018 4.18842 14.4496C4.25805 14.4112 4.26005 14.3442 4.26005 12.0323C4.26005 9.89915 4.25401 9.65205 4.20146 9.63127C4.08561 9.58551 2.79593 9.60557 2.74901 9.65389ZM18.7501 9.63337C18.7138 9.64847 18.7038 10.1641 18.7038 12.0314C18.7038 14.3441 18.7058 14.4112 18.7754 14.4496C18.8701 14.5018 20.093 14.5018 20.1877 14.4496C20.2573 14.4113 20.2593 14.3444 20.2593 12.0549C20.2593 10.2739 20.2484 9.68847 20.2149 9.65389C20.1833 9.62136 19.9718 9.609 19.4834 9.61114C19.1055 9.61278 18.7756 9.62281 18.7501 9.63337ZM7.71492 10.6908C7.3442 10.8154 7.04218 11.0809 6.86426 11.4385C6.76941 11.6292 6.75993 11.6846 6.75993 12.0486C6.75993 12.4322 6.76526 12.4591 6.8867 12.6897C7.3252 13.5224 8.35271 13.7065 9.02112 13.0722C9.31955 12.7889 9.45492 12.4541 9.45125 12.0081C9.44521 11.2758 8.87565 10.6821 8.14875 10.6504C7.98124 10.6431 7.80903 10.6591 7.71492 10.6908ZM14.5003 10.6889C14.0784 10.8331 13.7324 11.1588 13.5926 11.5434C13.4844 11.8413 13.4844 12.2559 13.5926 12.5538C13.703 12.8574 13.9773 13.1574 14.2894 13.3155C14.5103 13.4275 14.5679 13.4402 14.8513 13.4388C15.4063 13.4362 15.8159 13.1859 16.0772 12.6897C16.1986 12.4591 16.2039 12.4322 16.2039 12.0486C16.2039 11.6816 16.1949 11.6298 16.0956 11.4279C15.9612 11.1548 15.6938 10.8924 15.4165 10.7617C15.1648 10.643 14.7346 10.6089 14.5003 10.6889ZM7.89851 11.3946C7.76237 11.435 7.55238 11.6292 7.49682 11.7662C7.38475 12.0423 7.45494 12.3736 7.66393 12.5546C7.98261 12.8307 8.41759 12.7607 8.6571 12.3948C8.75628 12.2432 8.77254 11.9157 8.68906 11.7512C8.53422 11.446 8.21331 11.3012 7.89851 11.3946ZM14.6299 11.4027C14.51 11.4547 14.3411 11.6205 14.2748 11.7512C14.1913 11.9157 14.2076 12.2432 14.3068 12.3948C14.5463 12.7607 14.9812 12.8307 15.2999 12.5546C15.7342 12.1784 15.4928 11.4271 14.9223 11.3792C14.8124 11.37 14.6809 11.3806 14.6299 11.4027Z" fill="#222222"/>
</svg>
