<svg width="18" height="18" viewBox="0 0 18 18" fill="none" xmlns="http://www.w3.org/2000/svg">
<path d="M16.93 4.035L15.5967 1.36833C15.5412 1.25757 15.4561 1.16444 15.3507 1.09938C15.2453 1.03433 15.1239 0.999911 15 1H3C2.87615 0.999911 2.75472 1.03433 2.64933 1.09938C2.54394 1.16444 2.45876 1.25757 2.40333 1.36833L1.07 4.035C1.02405 4.12774 1.00009 4.22983 1 4.33333V15.6667C1 16.0203 1.14048 16.3594 1.39052 16.6095C1.64057 16.8595 1.97971 17 2.33333 17H15.6667C16.0203 17 16.3594 16.8595 16.6095 16.6095C16.8595 16.3594 17 16.0203 17 15.6667V4.33333C16.9999 4.22983 16.976 4.12774 16.93 4.035ZM3.41167 2.33333H14.5883L15.255 3.66667H2.745L3.41167 2.33333ZM15.6667 15.6667H2.33333V5H15.6667V15.6667ZM12.1383 10.5283C12.2003 10.5902 12.2495 10.6638 12.283 10.7447C12.3166 10.8256 12.3339 10.9124 12.3339 11C12.3339 11.0876 12.3166 11.1744 12.283 11.2553C12.2495 11.3362 12.2003 11.4098 12.1383 11.4717L9.47167 14.1383C9.40975 14.2003 9.33623 14.2495 9.25529 14.283C9.17436 14.3166 9.08761 14.3339 9 14.3339C8.91239 14.3339 8.82564 14.3166 8.74471 14.283C8.66377 14.2495 8.59025 14.2003 8.52833 14.1383L5.86167 11.4717C5.73657 11.3466 5.6663 11.1769 5.6663 11C5.6663 10.8231 5.73657 10.6534 5.86167 10.5283C5.98676 10.4032 6.15642 10.333 6.33333 10.333C6.51024 10.333 6.67991 10.4032 6.805 10.5283L8.33333 12.0575V7C8.33333 6.82319 8.40357 6.65362 8.5286 6.5286C8.65362 6.40357 8.82319 6.33333 9 6.33333C9.17681 6.33333 9.34638 6.40357 9.47141 6.5286C9.59643 6.65362 9.66667 6.82319 9.66667 7V12.0575L11.195 10.5283C11.2569 10.4663 11.3304 10.4172 11.4114 10.3836C11.4923 10.3501 11.5791 10.3328 11.6667 10.3328C11.7543 10.3328 11.841 10.3501 11.922 10.3836C12.0029 10.4172 12.0764 10.4663 12.1383 10.5283Z" fill="#5C5C5C"/>
</svg>
