<svg width="18" height="18" viewBox="0 0 18 18" fill="none" xmlns="http://www.w3.org/2000/svg">
<path d="M2.4375 10.375C1.90875 10.375 1.46406 10.1947 1.10344 9.83406C0.742812 9.47344 0.5625 9.02875 0.5625 8.5C0.5625 7.97125 0.742812 7.52656 1.10344 7.16594C1.46406 6.80531 1.90875 6.625 2.4375 6.625V4.39C2.4375 3.97313 2.58594 3.61656 2.88281 3.32031C3.17969 3.02406 3.53594 2.87563 3.95156 2.875H7.125C7.125 2.34625 7.30531 1.90156 7.66594 1.54094C8.02656 1.18031 8.47125 1 9 1C9.52875 1 9.97344 1.18031 10.3341 1.54094C10.6947 1.90156 10.875 2.34625 10.875 2.875H14.0484C14.4647 2.875 14.8209 3.02344 15.1172 3.32031C15.4134 3.61719 15.5619 3.97344 15.5625 4.38906V6.625C16.0913 6.625 16.5359 6.80531 16.8966 7.16594C17.2572 7.52656 17.4375 7.97125 17.4375 8.5C17.4375 9.02875 17.2572 9.47344 16.8966 9.83406C16.5359 10.1947 16.0913 10.375 15.5625 10.375V14.4859C15.5625 14.9022 15.4141 15.2584 15.1172 15.5547C14.8203 15.8509 14.4641 15.9994 14.0484 16H3.95156C3.53531 16 3.17906 15.8516 2.88281 15.5547C2.58656 15.2578 2.43813 14.9019 2.4375 14.4869V10.375ZM6.18563 8.96875C6.44563 8.96875 6.66719 8.87781 6.85031 8.69594C7.03344 8.51406 7.125 8.29312 7.125 8.03312C7.125 7.77312 7.03406 7.55156 6.85219 7.36844C6.67031 7.18531 6.44937 7.09375 6.18937 7.09375C5.92937 7.09375 5.70781 7.18469 5.52469 7.36656C5.34156 7.54844 5.25 7.76938 5.25 8.02938C5.25 8.28938 5.34094 8.51094 5.52281 8.69406C5.70469 8.87719 5.92563 8.96875 6.18563 8.96875ZM11.8106 8.96875C12.0706 8.96875 12.2922 8.87781 12.4753 8.69594C12.6584 8.51406 12.75 8.29312 12.75 8.03312C12.75 7.77312 12.6591 7.55156 12.4772 7.36844C12.2953 7.18531 12.0744 7.09375 11.8144 7.09375C11.5544 7.09375 11.3328 7.18469 11.1497 7.36656C10.9666 7.54844 10.875 7.76938 10.875 8.02938C10.875 8.28938 10.9659 8.51094 11.1478 8.69406C11.3297 8.87719 11.5506 8.96875 11.8106 8.96875ZM6.1875 12.7188H11.8125C11.9456 12.7188 12.0569 12.6738 12.1462 12.5838C12.2356 12.4938 12.2806 12.3822 12.2812 12.2491C12.2819 12.1159 12.2369 12.0047 12.1462 11.9153C12.0556 11.8259 11.9444 11.7812 11.8125 11.7812H6.1875C6.05438 11.7812 5.94313 11.8263 5.85375 11.9163C5.76438 12.0063 5.71938 12.1178 5.71875 12.2509C5.71812 12.3841 5.76312 12.4953 5.85375 12.5847C5.94438 12.6741 6.05562 12.7188 6.1875 12.7188ZM3.9525 15.0625H14.0484C14.2166 15.0625 14.3547 15.0084 14.4628 14.9003C14.5709 14.7922 14.625 14.6541 14.625 14.4859V4.38906C14.625 4.22094 14.5709 4.08281 14.4628 3.97469C14.3547 3.86656 14.2166 3.8125 14.0484 3.8125H3.95156C3.78344 3.8125 3.64531 3.86656 3.53719 3.97469C3.42906 4.08281 3.375 4.22125 3.375 4.39V14.4859C3.375 14.6541 3.42906 14.7922 3.53719 14.9003C3.64531 15.0084 3.78375 15.0625 3.9525 15.0625Z" fill="#222222"/>
</svg>
