<svg width="18" height="19" viewBox="0 0 18 19" fill="none" xmlns="http://www.w3.org/2000/svg">
<path d="M8.4 2.9V1.1C8.4 0.94087 8.46321 0.788258 8.57574 0.675736C8.68826 0.563214 8.84087 0.5 9 0.5C9.15913 0.5 9.31174 0.563214 9.42426 0.675736C9.53679 0.788258 9.6 0.94087 9.6 1.1V2.9C9.6 3.05913 9.53679 3.21174 9.42426 3.32426C9.31174 3.43679 9.15913 3.5 9 3.5C8.84087 3.5 8.68826 3.43679 8.57574 3.32426C8.46321 3.21174 8.4 3.05913 8.4 2.9ZM13.8 9.5C13.8 10.4494 13.5185 11.3774 12.9911 12.1667C12.4636 12.9561 11.714 13.5713 10.8369 13.9346C9.9598 14.2979 8.99468 14.393 8.06357 14.2078C7.13246 14.0226 6.27718 13.5654 5.60589 12.8941C4.9346 12.2228 4.47744 11.3675 4.29223 10.4364C4.10702 9.50533 4.20208 8.54021 4.56538 7.66312C4.92868 6.78603 5.54391 6.03638 6.33326 5.50895C7.12262 4.98151 8.05065 4.7 9 4.7C10.2726 4.70139 11.4927 5.20755 12.3926 6.10742C13.2925 7.0073 13.7986 8.22739 13.8 9.5ZM12.6 9.5C12.6 8.78799 12.3889 8.09196 11.9933 7.49995C11.5977 6.90793 11.0355 6.44651 10.3777 6.17403C9.71985 5.90156 8.99601 5.83027 8.29768 5.96917C7.59934 6.10808 6.95789 6.45095 6.45442 6.95442C5.95095 7.45789 5.60808 8.09934 5.46917 8.79768C5.33027 9.49601 5.40156 10.2198 5.67403 10.8777C5.94651 11.5355 6.40793 12.0977 6.99995 12.4933C7.59196 12.8889 8.28799 13.1 9 13.1C9.95448 13.099 10.8696 12.7194 11.5445 12.0445C12.2194 11.3696 12.599 10.4545 12.6 9.5ZM3.7755 5.1245C3.88808 5.23708 4.04078 5.30033 4.2 5.30033C4.35922 5.30033 4.51192 5.23708 4.6245 5.1245C4.73708 5.01192 4.80033 4.85922 4.80033 4.7C4.80033 4.54078 4.73708 4.38808 4.6245 4.2755L3.4245 3.0755C3.31192 2.96292 3.15922 2.89967 3 2.89967C2.84078 2.89967 2.68808 2.96292 2.5755 3.0755C2.46292 3.18808 2.39967 3.34078 2.39967 3.5C2.39967 3.65922 2.46292 3.81192 2.5755 3.9245L3.7755 5.1245ZM3.7755 13.8755L2.5755 15.0755C2.46292 15.1881 2.39967 15.3408 2.39967 15.5C2.39967 15.6592 2.46292 15.8119 2.5755 15.9245C2.68808 16.0371 2.84078 16.1003 3 16.1003C3.15922 16.1003 3.31192 16.0371 3.4245 15.9245L4.6245 14.7245C4.68025 14.6688 4.72447 14.6026 4.75464 14.5297C4.78481 14.4569 4.80033 14.3788 4.80033 14.3C4.80033 14.2212 4.78481 14.1431 4.75464 14.0703C4.72447 13.9974 4.68025 13.9312 4.6245 13.8755C4.56875 13.8198 4.50257 13.7755 4.42974 13.7454C4.3569 13.7152 4.27884 13.6997 4.2 13.6997C4.12116 13.6997 4.0431 13.7152 3.97026 13.7454C3.89743 13.7755 3.83125 13.8198 3.7755 13.8755ZM13.8 5.3C13.8788 5.30006 13.9569 5.28459 14.0297 5.25448C14.1025 5.22437 14.1687 5.1802 14.2245 5.1245L15.4245 3.9245C15.5371 3.81192 15.6003 3.65922 15.6003 3.5C15.6003 3.34078 15.5371 3.18808 15.4245 3.0755C15.3119 2.96292 15.1592 2.89967 15 2.89967C14.8408 2.89967 14.6881 2.96292 14.5755 3.0755L13.3755 4.2755C13.2915 4.35941 13.2343 4.46637 13.2111 4.58282C13.1879 4.69927 13.1998 4.81998 13.2452 4.92967C13.2907 5.03937 13.3677 5.13311 13.4664 5.19903C13.5652 5.26496 13.6813 5.30009 13.8 5.3ZM14.2245 13.8755C14.1119 13.7629 13.9592 13.6997 13.8 13.6997C13.6408 13.6997 13.4881 13.7629 13.3755 13.8755C13.2629 13.9881 13.1997 14.1408 13.1997 14.3C13.1997 14.4592 13.2629 14.6119 13.3755 14.7245L14.5755 15.9245C14.6312 15.9802 14.6974 16.0245 14.7703 16.0546C14.8431 16.0848 14.9212 16.1003 15 16.1003C15.0788 16.1003 15.1569 16.0848 15.2297 16.0546C15.3026 16.0245 15.3688 15.9802 15.4245 15.9245C15.4802 15.8688 15.5245 15.8026 15.5546 15.7297C15.5848 15.6569 15.6003 15.5788 15.6003 15.5C15.6003 15.4212 15.5848 15.3431 15.5546 15.2703C15.5245 15.1974 15.4802 15.1312 15.4245 15.0755L14.2245 13.8755ZM3 9.5C3 9.34087 2.93679 9.18826 2.82426 9.07574C2.71174 8.96321 2.55913 8.9 2.4 8.9H0.6C0.44087 8.9 0.288258 8.96321 0.175736 9.07574C0.0632141 9.18826 0 9.34087 0 9.5C0 9.65913 0.0632141 9.81174 0.175736 9.92426C0.288258 10.0368 0.44087 10.1 0.6 10.1H2.4C2.55913 10.1 2.71174 10.0368 2.82426 9.92426C2.93679 9.81174 3 9.65913 3 9.5ZM9 15.5C8.84087 15.5 8.68826 15.5632 8.57574 15.6757C8.46321 15.7883 8.4 15.9409 8.4 16.1V17.9C8.4 18.0591 8.46321 18.2117 8.57574 18.3243C8.68826 18.4368 8.84087 18.5 9 18.5C9.15913 18.5 9.31174 18.4368 9.42426 18.3243C9.53679 18.2117 9.6 18.0591 9.6 17.9V16.1C9.6 15.9409 9.53679 15.7883 9.42426 15.6757C9.31174 15.5632 9.15913 15.5 9 15.5ZM17.4 8.9H15.6C15.4409 8.9 15.2883 8.96321 15.1757 9.07574C15.0632 9.18826 15 9.34087 15 9.5C15 9.65913 15.0632 9.81174 15.1757 9.92426C15.2883 10.0368 15.4409 10.1 15.6 10.1H17.4C17.5591 10.1 17.7117 10.0368 17.8243 9.92426C17.9368 9.81174 18 9.65913 18 9.5C18 9.34087 17.9368 9.18826 17.8243 9.07574C17.7117 8.96321 17.5591 8.9 17.4 8.9Z" fill="#5C5C5C"/>
</svg>
