<svg width="16" height="16" viewBox="0 0 16 16" fill="none" xmlns="http://www.w3.org/2000/svg">
<path d="M13.25 2.4H11.15V1.35C11.15 1.25717 11.1131 1.16815 11.0475 1.10251C10.9818 1.03687 10.8928 1 10.8 1C10.7072 1 10.6181 1.03687 10.5525 1.10251C10.4869 1.16815 10.45 1.25717 10.45 1.35V2.4H5.55V1.35C5.55 1.25717 5.51313 1.16815 5.44749 1.10251C5.38185 1.03687 5.29283 1 5.2 1C5.10717 1 5.01815 1.03687 4.95251 1.10251C4.88687 1.16815 4.85 1.25717 4.85 1.35V2.4H2.75C2.28604 2.40056 1.84125 2.58511 1.51318 2.91318C1.18511 3.24125 1.00056 3.68604 1 4.15V13.25C1.00056 13.714 1.18511 14.1588 1.51318 14.4868C1.84125 14.8149 2.28604 14.9994 2.75 15H13.25C13.7141 15 14.1592 14.8156 14.4874 14.4874C14.8156 14.1592 15 13.7141 15 13.25V4.15C15 3.68587 14.8156 3.24075 14.4874 2.91256C14.1592 2.58437 13.7141 2.4 13.25 2.4ZM14.3 13.25C14.3 13.5285 14.1894 13.7955 13.9925 13.9925C13.7955 14.1894 13.5285 14.3 13.25 14.3H2.75C2.47152 14.3 2.20445 14.1894 2.00754 13.9925C1.81062 13.7955 1.7 13.5285 1.7 13.25V7.3H14.3V13.25ZM14.3 6.6H1.7V4.15C1.7 3.5704 2.169 3.1 2.75 3.1H4.85V4.15C4.85 4.24283 4.88687 4.33185 4.95251 4.39749C5.01815 4.46312 5.10717 4.5 5.2 4.5C5.29283 4.5 5.38185 4.46312 5.44749 4.39749C5.51313 4.33185 5.55 4.24283 5.55 4.15V3.1H10.45V4.15C10.45 4.24283 10.4869 4.33185 10.5525 4.39749C10.6181 4.46312 10.7072 4.5 10.8 4.5C10.8928 4.5 10.9818 4.46312 11.0475 4.39749C11.1131 4.33185 11.15 4.24283 11.15 4.15V3.1H13.25C13.5285 3.1 13.7955 3.21062 13.9925 3.40754C14.1894 3.60445 14.3 3.87152 14.3 4.15V6.6Z" fill="#5C5C5C" stroke="#5C5C5C" stroke-width="0.3"/>
</svg>
