<svg width="14" height="15" viewBox="0 0 14 15" fill="none" xmlns="http://www.w3.org/2000/svg">
<rect x="2.9375" y="7.98633" width="1.38125" height="1.38125" fill="#5C5C5C"/>
<rect x="2.9375" y="10.75" width="1.38125" height="1.38125" fill="#5C5C5C"/>
<path d="M11.875 2.3H9.925V1.325C9.925 1.2388 9.89076 1.15614 9.82981 1.09519C9.76886 1.03424 9.6862 1 9.6 1C9.5138 1 9.43114 1.03424 9.37019 1.09519C9.30924 1.15614 9.275 1.2388 9.275 1.325V2.3H4.725V1.325C4.725 1.2388 4.69076 1.15614 4.62981 1.09519C4.56886 1.03424 4.4862 1 4.4 1C4.3138 1 4.23114 1.03424 4.17019 1.09519C4.10924 1.15614 4.075 1.2388 4.075 1.325V2.3H2.125C1.69418 2.30052 1.28116 2.47189 0.976521 2.77652C0.671887 3.08116 0.500516 3.49418 0.5 3.925V12.375C0.500516 12.8058 0.671887 13.2188 0.976521 13.5235C1.28116 13.8281 1.69418 13.9995 2.125 14H11.875C12.306 14 12.7193 13.8288 13.024 13.524C13.3288 13.2193 13.5 12.806 13.5 12.375V3.925C13.5 3.49402 13.3288 3.0807 13.024 2.77595C12.7193 2.4712 12.306 2.3 11.875 2.3ZM12.85 12.375C12.85 12.6336 12.7473 12.8816 12.5644 13.0644C12.3816 13.2473 12.1336 13.35 11.875 13.35H2.125C1.86641 13.35 1.61842 13.2473 1.43557 13.0644C1.25272 12.8816 1.15 12.6336 1.15 12.375V6.85H12.85V12.375ZM12.85 6.2H1.15V3.925C1.15 3.3868 1.5855 2.95 2.125 2.95H4.075V3.925C4.075 4.0112 4.10924 4.09386 4.17019 4.15481C4.23114 4.21576 4.3138 4.25 4.4 4.25C4.4862 4.25 4.56886 4.21576 4.62981 4.15481C4.69076 4.09386 4.725 4.0112 4.725 3.925V2.95H9.275V3.925C9.275 4.0112 9.30924 4.09386 9.37019 4.15481C9.43114 4.21576 9.5138 4.25 9.6 4.25C9.6862 4.25 9.76886 4.21576 9.82981 4.15481C9.89076 4.09386 9.925 4.0112 9.925 3.925V2.95H11.875C12.1336 2.95 12.3816 3.05272 12.5644 3.23557C12.7473 3.41842 12.85 3.66641 12.85 3.925V6.2Z" fill="#5C5C5C" stroke="#5C5C5C" stroke-width="0.40625"/>
<rect x="6.1875" y="7.98633" width="1.38125" height="1.38125" fill="#5C5C5C"/>
<rect x="6.1875" y="10.75" width="1.38125" height="1.38125" fill="#5C5C5C"/>
<rect x="9.4375" y="7.98633" width="1.38125" height="1.38125" fill="#5C5C5C"/>
<rect x="9.4375" y="10.75" width="1.38125" height="1.38125" fill="#5C5C5C"/>
</svg>
