<svg width="15" height="15" viewBox="0 0 15 15" fill="none" xmlns="http://www.w3.org/2000/svg">
<path d="M12.7749 1.9H10.6749V0.85C10.6749 0.757174 10.638 0.66815 10.5724 0.602513C10.5068 0.536875 10.4177 0.5 10.3249 0.5C10.2321 0.5 10.1431 0.536875 10.0774 0.602513C10.0118 0.66815 9.9749 0.757174 9.9749 0.85V1.9H5.0749V0.85C5.0749 0.757174 5.03803 0.66815 4.97239 0.602513C4.90675 0.536875 4.81773 0.5 4.7249 0.5C4.63208 0.5 4.54305 0.536875 4.47742 0.602513C4.41178 0.66815 4.3749 0.757174 4.3749 0.85V1.9H2.2749C1.81094 1.90056 1.36615 2.08511 1.03808 2.41318C0.710011 2.74125 0.525458 3.18604 0.524902 3.65V12.75C0.525458 13.214 0.710011 13.6588 1.03808 13.9868C1.36615 14.3149 1.81094 14.4994 2.2749 14.5H12.7749C13.239 14.5 13.6842 14.3156 14.0123 13.9874C14.3405 13.6592 14.5249 13.2141 14.5249 12.75V3.65C14.5249 3.18587 14.3405 2.74075 14.0123 2.41256C13.6842 2.08437 13.239 1.9 12.7749 1.9ZM13.8249 12.75C13.8249 13.0285 13.7143 13.2955 13.5174 13.4925C13.3205 13.6894 13.0534 13.8 12.7749 13.8H2.2749C1.99643 13.8 1.72935 13.6894 1.53244 13.4925C1.33553 13.2955 1.2249 13.0285 1.2249 12.75V6.8H13.8249V12.75ZM13.8249 6.1H1.2249V3.65C1.2249 3.0704 1.6939 2.6 2.2749 2.6H4.3749V3.65C4.3749 3.74283 4.41178 3.83185 4.47742 3.89749C4.54305 3.96312 4.63208 4 4.7249 4C4.81773 4 4.90675 3.96312 4.97239 3.89749C5.03803 3.83185 5.0749 3.74283 5.0749 3.65V2.6H9.9749V3.65C9.9749 3.74283 10.0118 3.83185 10.0774 3.89749C10.1431 3.96312 10.2321 4 10.3249 4C10.4177 4 10.5068 3.96312 10.5724 3.89749C10.638 3.83185 10.6749 3.74283 10.6749 3.65V2.6H12.7749C13.0534 2.6 13.3205 2.71062 13.5174 2.90754C13.7143 3.10445 13.8249 3.37152 13.8249 3.65V6.1Z" fill="#F5B963" stroke="#F5B963" stroke-width="0.3"/>
</svg>
