<svg width="17" height="16" viewBox="0 0 17 16" fill="none" xmlns="http://www.w3.org/2000/svg">
<g clip-path="url(#clip0_804_16242)">
<path d="M8.26385 6.80338C8.26385 6.64269 8.3115 6.4856 8.40078 6.35198C8.49006 6.21837 8.61696 6.11423 8.76542 6.05273C8.91389 5.99124 9.07725 5.97515 9.23486 6.0065C9.39247 6.03785 9.53724 6.11523 9.65088 6.22886C9.76451 6.34249 9.84189 6.48726 9.87324 6.64487C9.90459 6.80248 9.8885 6.96585 9.827 7.11431C9.76551 7.26278 9.66137 7.38967 9.52775 7.47895C9.39414 7.56823 9.23705 7.61588 9.07635 7.61588C8.86086 7.61588 8.6542 7.53028 8.50183 7.37791C8.34945 7.22553 8.26385 7.01887 8.26385 6.80338ZM6.09719 7.61588C6.25788 7.61588 6.41497 7.56823 6.54859 7.47895C6.6822 7.38967 6.78634 7.26278 6.84784 7.11431C6.90933 6.96585 6.92542 6.80248 6.89407 6.64487C6.86272 6.48726 6.78534 6.34249 6.67171 6.22886C6.55808 6.11523 6.41331 6.03785 6.2557 6.0065C6.09809 5.97515 5.93472 5.99124 5.78626 6.05273C5.63779 6.11423 5.5109 6.21837 5.42162 6.35198C5.33234 6.4856 5.28469 6.64269 5.28469 6.80338C5.28469 7.01887 5.37029 7.22553 5.52266 7.37791C5.67503 7.53028 5.8817 7.61588 6.09719 7.61588ZM12.0555 7.61588C12.2162 7.61588 12.3733 7.56823 12.5069 7.47895C12.6405 7.38967 12.7447 7.26278 12.8062 7.11431C12.8677 6.96585 12.8838 6.80248 12.8524 6.64487C12.8211 6.48726 12.7437 6.34249 12.63 6.22886C12.5164 6.11523 12.3716 6.03785 12.214 6.0065C12.0564 5.97515 11.8931 5.99124 11.7446 6.05273C11.5961 6.11423 11.4692 6.21837 11.3799 6.35198C11.2907 6.4856 11.243 6.64269 11.243 6.80338C11.243 7.01887 11.3286 7.22553 11.481 7.37791C11.6334 7.53028 11.84 7.61588 12.0555 7.61588ZM16.118 2.47005V11.1367C16.118 11.424 16.0039 11.6996 15.8007 11.9027C15.5976 12.1059 15.322 12.22 15.0347 12.22H6.02948L3.82219 14.1267L3.81609 14.1315C3.62111 14.2968 3.37365 14.3873 3.11802 14.3867C2.95888 14.3864 2.80174 14.3512 2.6576 14.2838C2.47064 14.1974 2.31249 14.059 2.20203 13.8852C2.09158 13.7113 2.03349 13.5093 2.03469 13.3034V2.47005C2.03469 2.18273 2.14882 1.90718 2.35199 1.70402C2.55515 1.50086 2.8307 1.38672 3.11802 1.38672H15.0347C15.322 1.38672 15.5976 1.50086 15.8007 1.70402C16.0039 1.90718 16.118 2.18273 16.118 2.47005ZM15.0347 2.47005H3.11802V13.3034L5.47224 11.2721C5.57011 11.1858 5.69586 11.1377 5.82635 11.1367H15.0347V2.47005Z" fill="#F5B963"/>
</g>
<defs>
<clipPath id="clip0_804_16242">
<rect width="16" height="16" fill="white" transform="translate(0.987305)"/>
</clipPath>
</defs>
</svg>
