<svg width="19" height="18" viewBox="0 0 19 18" fill="none" xmlns="http://www.w3.org/2000/svg">
<g clip-path="url(#clip0_827_33924)">
<path d="M13.9002 0.900988C13.3763 0.9016 12.8588 1.01655 12.3839 1.23783C11.9091 1.4591 11.4882 1.78135 11.1507 2.18209C10.8133 2.58283 10.5673 3.0524 10.4301 3.55802C10.2929 4.06363 10.2676 4.5931 10.3562 5.10947C10.4448 5.62584 10.6449 6.11666 10.9428 6.54766C11.2406 6.97866 11.629 7.33946 12.0807 7.60486C12.5324 7.87027 13.0366 8.03388 13.5581 8.08429C14.0795 8.13469 14.6057 8.07067 15.0999 7.89669C15.1561 7.87466 15.2161 7.86417 15.2764 7.86581C15.3367 7.86746 15.3961 7.88122 15.451 7.90628C15.5059 7.93134 15.5552 7.96718 15.5959 8.01167C15.6367 8.05616 15.6681 8.10839 15.6883 8.16526C15.7084 8.22213 15.7169 8.28248 15.7133 8.34271C15.7097 8.40294 15.694 8.46183 15.6671 8.51586C15.6403 8.5699 15.6029 8.61799 15.557 8.65726C15.5112 8.69654 15.458 8.7262 15.4005 8.74449C14.4999 9.06296 13.5214 9.08659 12.6065 8.81198C11.6916 8.53737 10.8878 7.97875 10.3115 7.21699C9.7352 6.45522 9.41623 5.52982 9.40078 4.57473C9.38534 3.61964 9.67421 2.68441 10.2256 1.9044C10.777 1.12439 11.5623 0.540074 12.4678 0.236017C13.3733 -0.0680399 14.3521 -0.0760602 15.2625 0.213117C16.1729 0.502294 16.9677 1.07367 17.5317 1.84453C18.0958 2.6154 18.4 3.54577 18.4002 4.50099C18.4002 5.81049 17.5893 6.69429 16.6245 6.74559C16.3797 6.75872 16.1353 6.71454 15.9106 6.61658C15.6859 6.51862 15.4872 6.36956 15.3303 6.18129C15.2795 6.12229 15.2326 6.06006 15.1899 5.99499C14.8281 6.45219 14.2962 6.75099 13.6752 6.75099C12.5025 6.75099 11.6502 5.68539 11.6502 4.50099C11.6502 3.31659 12.5025 2.25099 13.6752 2.25099C14.1036 2.25099 14.4888 2.39319 14.8056 2.63079C14.8231 2.51877 14.8823 2.4175 14.9712 2.34721C15.0602 2.27692 15.1724 2.2428 15.2854 2.25167C15.3984 2.26054 15.5039 2.31174 15.5808 2.39505C15.6577 2.47835 15.7004 2.58761 15.7002 2.70099V4.50099C15.7002 5.05899 15.8478 5.40189 16.0134 5.59449C16.1754 5.78349 16.3779 5.85729 16.5759 5.84649C16.9611 5.82759 17.5002 5.44239 17.5002 4.50099C17.5002 3.54621 17.1209 2.63053 16.4458 1.9554C15.7706 1.28027 14.855 0.900988 13.9002 0.900988ZM13.6752 5.85099C14.2422 5.85099 14.8002 5.30469 14.8002 4.50099C14.8002 3.69729 14.2422 3.15099 13.6752 3.15099C13.1082 3.15099 12.5502 3.69729 12.5502 4.50099C12.5502 5.30469 13.1082 5.85099 13.6752 5.85099ZM16.6002 11.0494V9.17829C16.3158 9.34329 16.0158 9.48189 15.7002 9.59409V11.0494C15.7002 11.8171 15.0666 12.4588 14.2602 12.4588H9.8322L5.9856 15.301H5.9802V12.4588H4.5402C3.7338 12.4588 3.1002 11.8171 3.1002 11.0494V5.01039C3.1002 4.24269 3.7338 3.60099 4.5402 3.60099H8.5749C8.6277 3.29139 8.7051 2.99139 8.8071 2.70099H4.5402C3.2478 2.70099 2.2002 3.73509 2.2002 5.01039V11.0494C2.2002 12.3256 3.2478 13.3588 4.5402 13.3588H5.0802V15.3127C5.0802 15.5044 5.1432 15.6907 5.2602 15.8446C5.5572 16.2379 6.1215 16.318 6.5193 16.0246L10.1292 13.3588H14.2602C15.5526 13.3588 16.6002 12.3247 16.6002 11.0494Z" fill="#5C5C5C" stroke="#5C5C5C" stroke-width="0.36"/>
</g>
<defs>
<clipPath id="clip0_827_33924">
<rect width="18" height="18" fill="white" transform="translate(0.400391)"/>
</clipPath>
</defs>
</svg>
