<svg width="18" height="18" viewBox="0 0 18 18" fill="none" xmlns="http://www.w3.org/2000/svg">
<path d="M15.7498 9.00031C15.7498 9.1495 15.6906 9.29257 15.5851 9.39806C15.4796 9.50355 15.3365 9.56281 15.1873 9.56281H8.99982C8.85064 9.56281 8.70757 9.50355 8.60208 9.39806C8.49659 9.29257 8.43732 9.1495 8.43732 9.00031C8.43732 8.85113 8.49659 8.70805 8.60208 8.60257C8.70757 8.49708 8.85064 8.43781 8.99982 8.43781H15.1873C15.3365 8.43781 15.4796 8.49708 15.5851 8.60257C15.6906 8.70805 15.7498 8.85113 15.7498 9.00031ZM8.99982 5.06281H15.1873C15.3365 5.06281 15.4796 5.00355 15.5851 4.89806C15.6906 4.79257 15.7498 4.6495 15.7498 4.50031C15.7498 4.35113 15.6906 4.20805 15.5851 4.10257C15.4796 3.99708 15.3365 3.93781 15.1873 3.93781H8.99982C8.85064 3.93781 8.70757 3.99708 8.60208 4.10257C8.49659 4.20805 8.43732 4.35113 8.43732 4.50031C8.43732 4.6495 8.49659 4.79257 8.60208 4.89806C8.70757 5.00355 8.85064 5.06281 8.99982 5.06281ZM15.1873 12.9378H8.99982C8.85064 12.9378 8.70757 12.9971 8.60208 13.1026C8.49659 13.2081 8.43732 13.3511 8.43732 13.5003C8.43732 13.6495 8.49659 13.7926 8.60208 13.8981C8.70757 14.0036 8.85064 14.0628 8.99982 14.0628H15.1873C15.3365 14.0628 15.4796 14.0036 15.5851 13.8981C15.6906 13.7926 15.7498 13.6495 15.7498 13.5003C15.7498 13.3511 15.6906 13.2081 15.5851 13.1026C15.4796 12.9971 15.3365 12.9378 15.1873 12.9378ZM5.78936 2.97734L3.93732 4.83008L3.21029 4.10234C3.10475 3.9968 2.96159 3.9375 2.81232 3.9375C2.66306 3.9375 2.5199 3.9968 2.41436 4.10234C2.30881 4.20789 2.24951 4.35105 2.24951 4.50031C2.24951 4.64958 2.30881 4.79273 2.41436 4.89828L3.53936 6.02328C3.5916 6.07558 3.65363 6.11707 3.72192 6.14538C3.79021 6.17368 3.8634 6.18826 3.93732 6.18826C4.01125 6.18826 4.08444 6.17368 4.15273 6.14538C4.22101 6.11707 4.28305 6.07558 4.33529 6.02328L6.58529 3.77328C6.69084 3.66773 6.75014 3.52458 6.75014 3.37531C6.75014 3.22605 6.69084 3.08289 6.58529 2.97734C6.47975 2.8718 6.33659 2.8125 6.18732 2.8125C6.03806 2.8125 5.8949 2.8718 5.78936 2.97734ZM5.78936 7.47734L3.93732 9.33008L3.21029 8.60234C3.10475 8.4968 2.96159 8.4375 2.81232 8.4375C2.66306 8.4375 2.5199 8.4968 2.41436 8.60234C2.30881 8.70789 2.24951 8.85105 2.24951 9.00031C2.24951 9.07422 2.26407 9.14741 2.29235 9.21569C2.32064 9.28398 2.36209 9.34602 2.41436 9.39828L3.53936 10.5233C3.5916 10.5756 3.65363 10.6171 3.72192 10.6454C3.79021 10.6737 3.8634 10.6883 3.93732 10.6883C4.01125 10.6883 4.08444 10.6737 4.15273 10.6454C4.22101 10.6171 4.28305 10.5756 4.33529 10.5233L6.58529 8.27328C6.69084 8.16773 6.75014 8.02458 6.75014 7.87531C6.75014 7.72605 6.69084 7.58289 6.58529 7.47734C6.47975 7.3718 6.33659 7.3125 6.18732 7.3125C6.03806 7.3125 5.8949 7.3718 5.78936 7.47734ZM5.78936 11.9773L3.93732 13.8301L3.21029 13.1023C3.15803 13.0501 3.09599 13.0086 3.0277 12.9803C2.95942 12.9521 2.88623 12.9375 2.81232 12.9375C2.73841 12.9375 2.66523 12.9521 2.59695 12.9803C2.52866 13.0086 2.46662 13.0501 2.41436 13.1023C2.36209 13.1546 2.32064 13.2167 2.29235 13.2849C2.26407 13.3532 2.24951 13.4264 2.24951 13.5003C2.24951 13.5742 2.26407 13.6474 2.29235 13.7157C2.32064 13.784 2.36209 13.846 2.41436 13.8983L3.53936 15.0233C3.5916 15.0756 3.65363 15.1171 3.72192 15.1454C3.79021 15.1737 3.8634 15.1883 3.93732 15.1883C4.01125 15.1883 4.08444 15.1737 4.15273 15.1454C4.22101 15.1171 4.28305 15.0756 4.33529 15.0233L6.58529 12.7733C6.69084 12.6677 6.75014 12.5246 6.75014 12.3753C6.75014 12.226 6.69084 12.0829 6.58529 11.9773C6.47975 11.8718 6.33659 11.8125 6.18732 11.8125C6.03806 11.8125 5.8949 11.8718 5.78936 11.9773Z" fill="#374151" stroke="#374151" stroke-width="0.1"/>
</svg>
