<svg width="18" height="17" viewBox="0 0 18 17" fill="none" xmlns="http://www.w3.org/2000/svg">
<path d="M9.14044 1.73108C7.67994 1.73108 6.25223 2.16418 5.03786 2.97559C3.82349 3.787 2.87701 4.9403 2.3181 6.28963C1.75918 7.63896 1.61295 9.12373 1.89788 10.5562C2.18281 11.9886 2.88611 13.3044 3.91884 14.3371C4.95158 15.3699 6.26736 16.0732 7.69981 16.3581C9.13225 16.643 10.617 16.4968 11.9664 15.9379C13.3157 15.379 14.469 14.4325 15.2804 13.2181C16.0918 12.0038 16.5249 10.576 16.5249 9.11554C16.5227 7.15775 15.7439 5.28078 14.3596 3.89642C12.9752 2.51205 11.0982 1.73332 9.14044 1.73108ZM9.14044 15.2693C7.92335 15.2693 6.7336 14.9083 5.72162 14.2322C4.70965 13.556 3.92091 12.5949 3.45515 11.4705C2.98939 10.346 2.86753 9.10872 3.10497 7.91501C3.34241 6.72131 3.9285 5.62482 4.78911 4.76421C5.64972 3.9036 6.74621 3.31751 7.93991 3.08007C9.13362 2.84263 10.3709 2.96449 11.4954 3.43025C12.6198 3.89601 13.5809 4.68475 14.2571 5.69672C14.9332 6.70869 15.2942 7.89845 15.2942 9.11554C15.2923 10.747 14.6434 12.3112 13.4898 13.4649C12.3361 14.6185 10.7719 15.2674 9.14044 15.2693ZM4.03748 1.55109L1.57599 4.01257C1.46052 4.12804 1.30391 4.19291 1.14062 4.19291C0.977319 4.19291 0.820709 4.12804 0.705241 4.01257C0.589772 3.89711 0.524902 3.7405 0.524902 3.5772C0.524902 3.4139 0.589772 3.25729 0.705241 3.14182L3.16673 0.680338C3.28219 0.56487 3.4388 0.5 3.6021 0.5C3.7654 0.5 3.92201 0.56487 4.03748 0.680338C4.15295 0.795807 4.21781 0.952416 4.21781 1.11571C4.21781 1.27901 4.15295 1.43562 4.03748 1.55109ZM17.5756 4.01257C17.5185 4.06979 17.4506 4.11518 17.3759 4.14615C17.3012 4.17711 17.2211 4.19305 17.1403 4.19305C17.0594 4.19305 16.9793 4.17711 16.9046 4.14615C16.8299 4.11518 16.762 4.06979 16.7049 4.01257L14.2434 1.55109C14.1279 1.43562 14.0631 1.27901 14.0631 1.11571C14.0631 0.952416 14.1279 0.795807 14.2434 0.680338C14.3589 0.56487 14.5155 0.5 14.6788 0.5C14.8421 0.5 14.9987 0.56487 15.1142 0.680338L17.5756 3.14182C17.6329 3.19898 17.6783 3.26684 17.7092 3.34155C17.7402 3.41625 17.7561 3.49633 17.7561 3.5772C17.7561 3.65807 17.7402 3.73814 17.7092 3.81285C17.6783 3.88755 17.6329 3.95542 17.5756 4.01257ZM13.448 8.50017C13.6112 8.50017 13.7678 8.565 13.8832 8.68041C13.9986 8.79581 14.0634 8.95233 14.0634 9.11554C14.0634 9.27875 13.9986 9.43527 13.8832 9.55067C13.7678 9.66608 13.6112 9.73091 13.448 9.73091H9.14044C8.97724 9.73091 8.82071 9.66608 8.70531 9.55067C8.58991 9.43527 8.52507 9.27875 8.52507 9.11554V4.80794C8.52507 4.64473 8.58991 4.48821 8.70531 4.37281C8.82071 4.2574 8.97724 4.19257 9.14044 4.19257C9.30365 4.19257 9.46017 4.2574 9.57558 4.37281C9.69098 4.48821 9.75581 4.64473 9.75581 4.80794V8.50017H13.448Z" fill="#F5B963"/>
</svg>
