<svg width="18" height="18" viewBox="0 0 18 18" fill="none" xmlns="http://www.w3.org/2000/svg">
<path d="M9 1.5C7.41775 1.5 5.87103 1.96919 4.55544 2.84824C3.23985 3.72729 2.21447 4.97672 1.60897 6.43853C1.00347 7.90034 0.84504 9.50887 1.15372 11.0607C1.4624 12.6126 2.22433 14.038 3.34315 15.1569C4.46197 16.2757 5.88743 17.0376 7.43928 17.3463C8.99113 17.655 10.5997 17.4965 12.0615 16.891C13.5233 16.2855 14.7727 15.2602 15.6518 13.9446C16.5308 12.629 17 11.0822 17 9.5C16.9978 7.37895 16.1542 5.34542 14.6544 3.84562C13.1546 2.34581 11.121 1.50224 9 1.5ZM9 16.2692C7.66117 16.2692 6.35241 15.8722 5.23922 15.1284C4.12603 14.3846 3.2584 13.3274 2.74605 12.0905C2.2337 10.8536 2.09965 9.49249 2.36084 8.17939C2.62203 6.86629 3.26674 5.66012 4.21343 4.71343C5.16013 3.76674 6.36629 3.12203 7.67939 2.86084C8.99249 2.59965 10.3536 2.7337 11.5905 3.24605C12.8274 3.75839 13.8846 4.62602 14.6284 5.73922C15.3722 6.85241 15.7692 8.16117 15.7692 9.5C15.7672 11.2947 15.0534 13.0153 13.7843 14.2843C12.5153 15.5534 10.7947 16.2672 9 16.2692ZM13.9231 9.5C13.9231 9.66321 13.8582 9.81973 13.7428 9.93514C13.6274 10.0505 13.4709 10.1154 13.3077 10.1154H9C8.83679 10.1154 8.68027 10.0505 8.56486 9.93514C8.44945 9.81973 8.38462 9.66321 8.38462 9.5V5.19231C8.38462 5.0291 8.44945 4.87257 8.56486 4.75716C8.68027 4.64176 8.83679 4.57692 9 4.57692C9.16321 4.57692 9.31974 4.64176 9.43514 4.75716C9.55055 4.87257 9.61539 5.0291 9.61539 5.19231V8.88461H13.3077C13.4709 8.88461 13.6274 8.94945 13.7428 9.06486C13.8582 9.18026 13.9231 9.33679 13.9231 9.5Z" fill="#374151"/>
</svg>
