<svg width="18" height="18" viewBox="0 0 18 18" fill="none" xmlns="http://www.w3.org/2000/svg">
<g clip-path="url(#clip0_2285_12060)">
<path d="M13.3436 5.40915C13.0103 3.97612 12.1621 2.71549 10.9602 1.86689C9.75834 1.0183 8.28653 0.640892 6.82459 0.806416C5.36264 0.971941 4.01248 1.66885 3.03073 2.76469C2.04898 3.86052 1.50409 5.27888 1.49963 6.75015C1.49854 7.709 1.73017 8.65379 2.17463 9.5034C1.36548 9.93701 0.724435 10.6286 0.353349 11.4683C-0.0177363 12.3079 -0.0975765 13.2475 0.126514 14.1378C0.350604 15.028 0.86577 15.8178 1.59016 16.3817C2.31456 16.9456 3.20662 17.2513 4.12463 17.2502H8.99963V15.7502H4.12463C3.48595 15.7521 2.8686 15.5205 2.38877 15.0989C1.90895 14.6774 1.59975 14.095 1.51937 13.4614C1.43899 12.8278 1.59299 12.1867 1.95236 11.6587C2.31173 11.1307 2.85171 10.7523 3.47063 10.5947L4.54838 10.3164L3.88613 9.42166C3.30979 8.65031 2.99877 7.71304 2.99963 6.75015C3.00819 5.61464 3.44572 4.52435 4.22449 3.69792C5.00326 2.87149 6.06567 2.37004 7.19867 2.29413C8.33168 2.21821 9.45149 2.57345 10.3335 3.2886C11.2156 4.00375 11.7947 5.02593 11.9546 6.15015L12.0296 6.71866L12.5974 6.79365C13.5994 6.92498 14.5278 7.39029 15.2327 8.11442C15.9376 8.83854 16.3778 9.77917 16.4821 10.7843C16.5864 11.7895 16.3488 12.8005 15.8076 13.6539C15.2664 14.5073 14.4533 15.1534 13.4996 15.4877V17.0529C14.8004 16.7184 15.951 15.9565 16.7669 14.8896C17.5827 13.8227 18.0165 12.5127 17.9985 11.1697C17.9805 9.82675 17.5118 8.52877 16.6677 7.48411C15.8235 6.43946 14.6529 5.70871 13.3436 5.40915Z" fill="#222222"/>
<path d="M13.7197 13.2805L14.7802 12.22L12.3105 9.75022C12.0292 9.46901 11.6477 9.31104 11.25 9.31104C10.8522 9.31104 10.4708 9.46901 10.1895 9.75022L7.71973 12.22L8.78022 13.2805L10.5 11.5607V18.0002H12V11.5607L13.7197 13.2805Z" fill="#222222"/>
</g>
<defs>
<clipPath id="clip0_2285_12060">
<rect width="18" height="18" fill="white"/>
</clipPath>
</defs>
</svg>
