<svg width="18" height="18" viewBox="0 0 18 18" fill="none" xmlns="http://www.w3.org/2000/svg">
<g clip-path="url(#clip0_934_8378)">
<rect width="18" height="18" rx="9" fill="white"/>
<path d="M9 0C7.21997 0 5.47991 0.527841 3.99987 1.51677C2.51983 2.50571 1.36628 3.91131 0.685088 5.55585C0.00389956 7.20038 -0.17433 9.00998 0.172936 10.7558C0.520203 12.5016 1.37737 14.1053 2.63604 15.364C3.89471 16.6226 5.49836 17.4798 7.24419 17.8271C8.99002 18.1743 10.7996 17.9961 12.4442 17.3149C14.0887 16.6337 15.4943 15.4802 16.4832 14.0001C17.4722 12.5201 18 10.78 18 9C17.9975 6.61382 17.0485 4.3261 15.3612 2.63882C13.6739 0.95154 11.3862 0.00251984 9 0ZM12.9513 7.41288L8.1052 12.259C8.0409 12.3234 7.96454 12.3745 7.8805 12.4093C7.79645 12.4441 7.70637 12.4621 7.61539 12.4621C7.52441 12.4621 7.43432 12.4441 7.35027 12.4093C7.26623 12.3745 7.18988 12.3234 7.12558 12.259L5.04866 10.1821C4.91875 10.0522 4.84577 9.87602 4.84577 9.69231C4.84577 9.50859 4.91875 9.3324 5.04866 9.2025C5.17856 9.07259 5.35475 8.99961 5.53846 8.99961C5.72218 8.99961 5.89837 9.07259 6.02827 9.2025L7.61539 10.7905L11.9717 6.43327C12.0361 6.36895 12.1124 6.31792 12.1965 6.28311C12.2805 6.2483 12.3706 6.23038 12.4615 6.23038C12.5525 6.23038 12.6426 6.2483 12.7266 6.28311C12.8107 6.31792 12.887 6.36895 12.9513 6.43327C13.0157 6.49759 13.0667 6.57395 13.1015 6.65799C13.1363 6.74203 13.1542 6.83211 13.1542 6.92308C13.1542 7.01404 13.1363 7.10412 13.1015 7.18816C13.0667 7.2722 13.0157 7.34856 12.9513 7.41288Z" fill="#5C5C5C"/>
</g>
<rect x="0.5" y="0.5" width="17" height="17" rx="8.5" stroke="#5C5C5C"/>
<defs>
<clipPath id="clip0_934_8378">
<rect width="18" height="18" rx="9" fill="white"/>
</clipPath>
</defs>
</svg>
