<svg width="16" height="16" viewBox="0 0 16 16" fill="none" xmlns="http://www.w3.org/2000/svg">
<path d="M5.9375 0.4375H1.8125C1.44783 0.4375 1.09809 0.582366 0.840228 0.840228C0.582366 1.09809 0.4375 1.44783 0.4375 1.8125V5.9375C0.4375 6.30217 0.582366 6.65191 0.840228 6.90977C1.09809 7.16763 1.44783 7.3125 1.8125 7.3125H5.9375C6.30217 7.3125 6.65191 7.16763 6.90977 6.90977C7.16763 6.65191 7.3125 6.30217 7.3125 5.9375V1.8125C7.3125 1.44783 7.16763 1.09809 6.90977 0.840228C6.65191 0.582366 6.30217 0.4375 5.9375 0.4375ZM5.9375 5.9375H1.8125V1.8125H5.9375V5.9375ZM14.1875 0.4375H10.0625C9.69783 0.4375 9.34809 0.582366 9.09023 0.840228C8.83237 1.09809 8.6875 1.44783 8.6875 1.8125V5.9375C8.6875 6.30217 8.83237 6.65191 9.09023 6.90977C9.34809 7.16763 9.69783 7.3125 10.0625 7.3125H14.1875C14.5522 7.3125 14.9019 7.16763 15.1598 6.90977C15.4176 6.65191 15.5625 6.30217 15.5625 5.9375V1.8125C15.5625 1.44783 15.4176 1.09809 15.1598 0.840228C14.9019 0.582366 14.5522 0.4375 14.1875 0.4375ZM14.1875 5.9375H10.0625V1.8125H14.1875V5.9375ZM5.9375 8.6875H1.8125C1.44783 8.6875 1.09809 8.83237 0.840228 9.09023C0.582366 9.34809 0.4375 9.69783 0.4375 10.0625V14.1875C0.4375 14.5522 0.582366 14.9019 0.840228 15.1598C1.09809 15.4176 1.44783 15.5625 1.8125 15.5625H5.9375C6.30217 15.5625 6.65191 15.4176 6.90977 15.1598C7.16763 14.9019 7.3125 14.5522 7.3125 14.1875V10.0625C7.3125 9.69783 7.16763 9.34809 6.90977 9.09023C6.65191 8.83237 6.30217 8.6875 5.9375 8.6875ZM5.9375 14.1875H1.8125V10.0625H5.9375V14.1875ZM14.1875 8.6875H10.0625C9.69783 8.6875 9.34809 8.83237 9.09023 9.09023C8.83237 9.34809 8.6875 9.69783 8.6875 10.0625V14.1875C8.6875 14.5522 8.83237 14.9019 9.09023 15.1598C9.34809 15.4176 9.69783 15.5625 10.0625 15.5625H14.1875C14.5522 15.5625 14.9019 15.4176 15.1598 15.1598C15.4176 14.9019 15.5625 14.5522 15.5625 14.1875V10.0625C15.5625 9.69783 15.4176 9.34809 15.1598 9.09023C14.9019 8.83237 14.5522 8.6875 14.1875 8.6875ZM14.1875 14.1875H10.0625V10.0625H14.1875V14.1875Z" fill="#222222"/>
</svg>
