<svg width="69" height="69" viewBox="0 0 69 69" fill="none" xmlns="http://www.w3.org/2000/svg">
<path d="M22.0833 56.9181H46.0376V48.3466C46.0376 44.9828 44.8823 42.1095 42.5718 39.7266C40.2614 37.34 37.4242 36.1467 34.0604 36.1467C30.6966 36.1467 27.8595 37.3409 25.549 39.7295C23.2385 42.1181 22.0833 44.9905 22.0833 48.3466V56.9181ZM34.0604 31.9752C37.4242 31.9752 40.2614 30.78 42.5718 28.3895C44.8823 25.999 46.0376 23.1276 46.0376 19.7752V11.2038H22.0833V19.7752C22.0833 23.139 23.2385 26.0124 25.549 28.3952C27.8595 30.7819 30.6966 31.9752 34.0604 31.9752ZM15.489 59.7752C15.0833 59.7752 14.7443 59.6381 14.4719 59.3638C14.1995 59.0895 14.0623 58.7495 14.0604 58.3438C14.0585 57.9381 14.1957 57.599 14.4719 57.3266C14.7481 57.0542 15.0871 56.9181 15.489 56.9181H19.2262V48.3466C19.2262 44.819 20.3071 41.6905 22.469 38.9609C24.6309 36.2314 27.4023 34.5981 30.7833 34.0609C27.4042 33.4895 24.6328 31.8476 22.469 29.1352C20.3052 26.4229 19.2242 23.3029 19.2262 19.7752V11.2038H15.489C15.0833 11.2038 14.7443 11.0667 14.4719 10.7924C14.1995 10.5181 14.0623 10.1781 14.0604 9.77239C14.0585 9.36668 14.1957 9.02763 14.4719 8.75525C14.7481 8.48287 15.0871 8.34668 15.489 8.34668H52.6318C53.0375 8.34668 53.3766 8.48382 53.649 8.75811C53.9214 9.03239 54.0585 9.37239 54.0604 9.77811C54.0623 10.1838 53.9252 10.5229 53.649 10.7952C53.3728 11.0676 53.0337 11.2038 52.6318 11.2038H48.8947V19.7752C48.8947 23.3029 47.8137 26.4229 45.6518 29.1352C43.4899 31.8476 40.7185 33.4895 37.3376 34.0609C40.7166 34.5943 43.488 36.2276 45.6518 38.9609C47.8137 41.6905 48.8947 44.819 48.8947 48.3466V56.9181H52.6318C53.0375 56.9181 53.3766 57.0552 53.649 57.3295C53.9214 57.6038 54.0585 57.9438 54.0604 58.3495C54.0623 58.7552 53.9252 59.0942 53.649 59.3666C53.3728 59.639 53.0337 59.7752 52.6318 59.7752H15.489Z" fill="#F5B963"/>
</svg>
