<svg width="17" height="18" viewBox="0 0 17 18" fill="none" xmlns="http://www.w3.org/2000/svg">
<path d="M14.3594 2.6875H12.5312V1.98438C12.5312 1.87249 12.4868 1.76518 12.4077 1.68606C12.3286 1.60695 12.2213 1.5625 12.1094 1.5625C11.9975 1.5625 11.8902 1.60695 11.8111 1.68606C11.7319 1.76518 11.6875 1.87249 11.6875 1.98438V2.6875H5.78125V1.98438C5.78125 1.87249 5.7368 1.76518 5.65769 1.68606C5.57857 1.60695 5.47126 1.5625 5.35938 1.5625C5.24749 1.5625 5.14018 1.60695 5.06106 1.68606C4.98195 1.76518 4.9375 1.87249 4.9375 1.98438V2.6875H3.10938C2.8483 2.6875 2.59792 2.79121 2.41332 2.97582C2.22871 3.16042 2.125 3.4108 2.125 3.67188V14.9219C2.125 15.1829 2.22871 15.4333 2.41332 15.6179C2.59792 15.8025 2.8483 15.9062 3.10938 15.9062H14.3594C14.6204 15.9062 14.8708 15.8025 15.0554 15.6179C15.24 15.4333 15.3438 15.1829 15.3438 14.9219V3.67188C15.3438 3.4108 15.24 3.16042 15.0554 2.97582C14.8708 2.79121 14.6204 2.6875 14.3594 2.6875ZM3.10938 3.53125H4.9375V4.23438C4.9375 4.34626 4.98195 4.45357 5.06106 4.53269C5.14018 4.6118 5.24749 4.65625 5.35938 4.65625C5.47126 4.65625 5.57857 4.6118 5.65769 4.53269C5.7368 4.45357 5.78125 4.34626 5.78125 4.23438V3.53125H11.6875V4.23438C11.6875 4.34626 11.7319 4.45357 11.8111 4.53269C11.8902 4.6118 11.9975 4.65625 12.1094 4.65625C12.2213 4.65625 12.3286 4.6118 12.4077 4.53269C12.4868 4.45357 12.5312 4.34626 12.5312 4.23438V3.53125H14.3594C14.3967 3.53125 14.4324 3.54607 14.4588 3.57244C14.4852 3.59881 14.5 3.63458 14.5 3.67188V6.0625H2.96875V3.67188C2.96875 3.63458 2.98357 3.59881 3.00994 3.57244C3.03631 3.54607 3.07208 3.53125 3.10938 3.53125ZM14.3594 15.0625H3.10938C3.07208 15.0625 3.03631 15.0477 3.00994 15.0213C2.98357 14.9949 2.96875 14.9592 2.96875 14.9219V6.90625H14.5V14.9219C14.5 14.9592 14.4852 14.9949 14.4588 15.0213C14.4324 15.0477 14.3967 15.0625 14.3594 15.0625ZM7.46875 8.73438V13.2344C7.46875 13.3463 7.4243 13.4536 7.34519 13.5327C7.26607 13.6118 7.15876 13.6562 7.04688 13.6562C6.93499 13.6562 6.82768 13.6118 6.74856 13.5327C6.66945 13.4536 6.625 13.3463 6.625 13.2344V9.41711L6.11031 9.67445C6.06073 9.6992 6.00676 9.71394 5.95148 9.71782C5.8962 9.72171 5.84069 9.71467 5.78813 9.69711C5.73557 9.67955 5.68699 9.6518 5.64515 9.61546C5.60331 9.57912 5.56904 9.5349 5.5443 9.48531C5.51955 9.43573 5.50481 9.38176 5.50093 9.32648C5.49704 9.2712 5.50408 9.21569 5.52164 9.16313C5.53921 9.11057 5.56695 9.06199 5.60329 9.02015C5.63963 8.97831 5.68385 8.94404 5.73344 8.9193L6.85844 8.3568C6.92277 8.32468 6.99424 8.30954 7.06606 8.31281C7.13789 8.31608 7.20769 8.33765 7.26883 8.37548C7.32998 8.41331 7.38044 8.46614 7.41543 8.52895C7.45042 8.59176 7.46877 8.66247 7.46875 8.73438ZM11.6573 10.791L10.1406 12.8125H11.5469C11.6588 12.8125 11.7661 12.8569 11.8452 12.9361C11.9243 13.0152 11.9688 13.1225 11.9688 13.2344C11.9688 13.3463 11.9243 13.4536 11.8452 13.5327C11.7661 13.6118 11.6588 13.6562 11.5469 13.6562H9.29688C9.21853 13.6562 9.14173 13.6344 9.07508 13.5932C9.00844 13.5521 8.95458 13.4931 8.91954 13.423C8.8845 13.353 8.86967 13.2745 8.8767 13.1965C8.88374 13.1185 8.91237 13.0439 8.95937 12.9812L10.9844 10.2812C11.0427 10.2046 11.0846 10.1169 11.1076 10.0234C11.1306 9.92986 11.1342 9.83263 11.1181 9.73771C11.1019 9.64278 11.0665 9.55218 11.0139 9.47151C10.9614 9.39085 10.8928 9.32184 10.8124 9.26877C10.7321 9.21569 10.6417 9.17968 10.5469 9.16297C10.4521 9.14626 10.3548 9.1492 10.2612 9.17161C10.1676 9.19402 10.0795 9.23543 10.0025 9.29326C9.92556 9.35109 9.86127 9.42412 9.81367 9.50781C9.78851 9.56027 9.75278 9.60695 9.70871 9.64493C9.66464 9.68291 9.61319 9.71137 9.5576 9.72851C9.50201 9.74565 9.44347 9.75111 9.38566 9.74454C9.32786 9.73798 9.27204 9.71953 9.2217 9.69035C9.17137 9.66117 9.12762 9.6219 9.0932 9.575C9.05877 9.5281 9.03442 9.47459 9.02167 9.41783C9.00892 9.36107 9.00805 9.30228 9.01911 9.24516C9.03017 9.18805 9.05292 9.13384 9.08594 9.08594C9.19196 8.90392 9.33404 8.74547 9.50347 8.62031C9.6729 8.49515 9.86611 8.40592 10.0712 8.35807C10.2764 8.31023 10.4891 8.30479 10.6965 8.34208C10.9038 8.37938 11.1013 8.45862 11.2769 8.57496C11.4525 8.69129 11.6025 8.84227 11.7177 9.01863C11.8329 9.19499 11.9108 9.39302 11.9468 9.60057C11.9827 9.80813 11.9759 10.0208 11.9267 10.2257C11.8775 10.4305 11.787 10.6231 11.6608 10.7917L11.6573 10.791Z" fill="#222222" stroke="#222222" stroke-width="0.2"/>
</svg>
