<svg width="22" height="22" viewBox="0 0 22 22" fill="none" xmlns="http://www.w3.org/2000/svg">
<rect x="1.1125" y="1.1125" width="19.775" height="19.775" rx="9.8875" stroke="#222222" stroke-width="1.225"/>
<path d="M17.0787 6.53336C17.0057 6.36482 16.8848 6.22144 16.7311 6.12105C16.5773 6.02067 16.3974 5.96771 16.2137 5.96877H5.78685C5.60339 5.96913 5.42398 6.02272 5.27038 6.12304C5.11678 6.22336 4.99559 6.3661 4.92152 6.53394C4.84745 6.70178 4.82367 6.88751 4.85308 7.0686C4.88248 7.24968 4.96381 7.41835 5.08718 7.55412L5.09192 7.55945L9.10449 11.8439V16.3956C9.10445 16.5672 9.15097 16.7355 9.23909 16.8827C9.32721 17.0299 9.45362 17.1505 9.60485 17.2315C9.75608 17.3124 9.92646 17.3509 10.0978 17.3427C10.2692 17.3344 10.4351 17.2799 10.5779 17.1848L12.4737 15.9205C12.6036 15.8339 12.7102 15.7166 12.7839 15.5789C12.8576 15.4413 12.8961 15.2875 12.8961 15.1314V11.8439L16.9092 7.55945L16.914 7.55412C17.0387 7.41897 17.1208 7.25008 17.1501 7.06854C17.1793 6.88701 17.1545 6.70087 17.0787 6.53336ZM12.0773 11.335C11.9953 11.422 11.9492 11.5367 11.9482 11.6561V15.1314L10.0524 16.3956V11.6561C10.0524 11.5358 10.0067 11.4199 9.92442 11.3321L5.78685 6.91666H16.2137L12.0773 11.335Z" fill="#222222" stroke="#222222" stroke-width="0.175"/>
</svg>
