<svg width="18" height="18" viewBox="0 0 18 18" fill="none" xmlns="http://www.w3.org/2000/svg">
<path fill-rule="evenodd" clip-rule="evenodd" d="M7.69191 1.03809L8.63691 1.60509C9.83549 2.31359 10.7563 3.41006 11.2469 4.71309C11.4134 4.33809 11.6114 3.97434 11.7952 3.60684L12.5309 4.34259C14.1824 5.99409 15.7507 8.46909 15.7507 10.8728C15.7507 14.0963 13.7632 16.1401 10.5832 16.4933L9.54066 16.6088L9.76866 15.5851C9.94641 14.7841 9.97866 14.2606 9.94116 13.8938C9.89616 13.4326 9.67716 13.0703 9.40416 12.7103C9.14316 12.3653 8.88441 12.0196 8.67741 11.6378C7.82616 12.3106 7.49616 12.9181 7.39041 13.4183C7.25541 14.0588 7.44666 14.7136 7.79616 15.4126L8.41266 16.6456L7.04316 16.4933C5.11116 16.2788 3.20766 14.9881 2.45766 13.1048C1.67391 11.1346 2.22816 8.75034 4.76016 6.55584C6.44016 5.10009 7.32966 3.21234 7.69191 1.03809ZM8.69091 3.51309C8.11941 5.11809 7.02216 6.58059 5.74191 7.68984C3.55866 9.58209 3.36291 11.3228 3.85191 12.5498C4.21566 13.4648 5.00091 14.2171 5.93166 14.6438C5.82292 14.1384 5.81985 13.616 5.92266 13.1093C6.16716 11.9498 7.00116 10.8631 8.60316 9.86184L9.41091 9.35709L9.71241 10.2608C9.97641 11.0528 10.5239 11.6131 10.9522 12.3083C11.4232 13.0733 11.5132 13.9508 11.4172 14.8268C13.3822 14.3356 14.2507 12.8453 14.2507 10.8728C14.2507 9.20634 13.2457 7.57134 12.2482 6.29334C11.8372 7.21434 10.9709 7.53834 10.1257 7.96134V6.74784C10.1257 5.72109 9.70791 4.46934 8.69091 3.51384V3.51309Z" fill="#222222"/>
</svg>
