<svg width="16" height="16" viewBox="0 0 16 16" fill="none" xmlns="http://www.w3.org/2000/svg">
<path d="M0.918923 1.84938C0.854372 1.90533 0.802513 1.97443 0.766813 2.05203C0.731113 2.12964 0.712396 2.21398 0.711914 2.2994V14.9C0.711914 15.0591 0.775131 15.2117 0.887658 15.3243C1.00018 15.4368 1.1528 15.5 1.31194 15.5C1.47108 15.5 1.6237 15.4368 1.73622 15.3243C1.84875 15.2117 1.91197 15.0591 1.91197 14.9V11.5826C3.92131 9.9955 5.65239 10.8513 7.64598 11.8383C8.87603 12.4466 10.2006 13.1021 11.6212 13.1021C12.666 13.1021 13.7618 12.7459 14.9078 11.7521C14.9724 11.6961 15.0242 11.627 15.0599 11.5494C15.0956 11.4718 15.1143 11.3875 15.1148 11.3021V2.2994C15.1145 2.18423 15.0811 2.07157 15.0186 1.97488C14.956 1.87818 14.8669 1.80153 14.762 1.75408C14.6571 1.70663 14.5407 1.69039 14.4267 1.70728C14.3128 1.72418 14.2062 1.77351 14.1195 1.84938C12.0194 3.66671 10.2403 2.78617 8.1785 1.76538C6.04241 0.70633 3.62055 -0.491474 0.918923 1.84938ZM13.9125 11.0185C11.9032 12.6056 10.1721 11.7491 8.1785 10.7628C6.30342 9.83649 4.21757 8.80295 1.91197 10.1328V2.58367C3.92131 0.996593 5.65239 1.85238 7.64598 2.83868C9.52106 3.76497 11.6077 4.79852 13.9125 3.4687V11.0185Z" fill="#374151"/>
</svg>
