<svg width="16" height="14" viewBox="0 0 16 14" fill="none" xmlns="http://www.w3.org/2000/svg">
<path d="M14.4999 2.86364H8.24442L6.2272 0.846426C6.11786 0.736207 5.9877 0.648822 5.84428 0.589351C5.70087 0.52988 5.54706 0.49951 5.39181 0.500006H1.49993C1.1865 0.500006 0.885895 0.624519 0.664262 0.846152C0.442628 1.06779 0.318115 1.36839 0.318115 1.68182V12.364C0.318506 12.6651 0.438319 12.9539 0.65128 13.1668C0.864241 13.3798 1.15297 13.4996 1.45414 13.5H14.5657C14.8615 13.4996 15.1452 13.3819 15.3544 13.1727C15.5636 12.9635 15.6814 12.6798 15.6817 12.3839V4.04546C15.6817 3.73202 15.5572 3.43142 15.3356 3.20979C15.114 2.98815 14.8134 2.86364 14.4999 2.86364ZM1.49993 1.68182H5.39181L6.57362 2.86364H1.49993V1.68182ZM14.4999 12.3182H1.49993V4.04546H14.4999V12.3182Z" fill="#6B7280"/>
</svg>
