<svg width="18" height="18" viewBox="0 0 18 18" fill="none" xmlns="http://www.w3.org/2000/svg">
<path d="M14.6357 5.37823H13.3523L10.2033 8.52582C10.3117 8.80222 10.3217 9.10754 10.2315 9.39044C10.1413 9.67334 9.9565 9.91655 9.70808 10.0792C9.45966 10.2418 9.16282 10.314 8.86746 10.2835C8.57211 10.253 8.29626 10.1217 8.0863 9.91177C7.87635 9.70181 7.74509 9.42596 7.7146 9.13061C7.68411 8.83525 7.75625 8.53841 7.91888 8.28999C8.08152 8.04157 8.32473 7.85672 8.60763 7.76654C8.89053 7.67635 9.19585 7.68632 9.47226 7.79478L12.6205 4.64651V3.36306C12.6206 3.19132 12.6888 3.02662 12.8102 2.90513L14.0033 1.71202C14.0254 1.6898 14.0531 1.67401 14.0835 1.66636C14.1138 1.6587 14.1457 1.65947 14.1757 1.66857C14.2371 1.68651 14.2826 1.73754 14.295 1.8003L14.6123 3.3872L16.1985 3.70444C16.2605 3.71685 16.3116 3.76237 16.3295 3.82375C16.3386 3.85356 16.3394 3.88528 16.3318 3.91551C16.3243 3.94575 16.3087 3.97338 16.2867 3.99547L15.0929 5.18857C14.9716 5.30979 14.8072 5.37798 14.6357 5.37823Z" fill="#222222"/>
<path d="M2.53448 9C2.53448 10.7148 3.21567 12.3593 4.42819 13.5718C5.64071 14.7843 7.28524 15.4655 9 15.4655C9.84906 15.4655 10.6898 15.2983 11.4742 14.9734C12.2587 14.6484 12.9714 14.1722 13.5718 13.5718C14.1722 12.9714 14.6484 12.2587 14.9734 11.4742C15.2983 10.6898 15.4655 9.84907 15.4655 9C15.4655 8.38069 15.3786 7.78207 15.2165 7.21586C15.1843 7.08586 15.2038 6.94842 15.2709 6.83248C15.3379 6.71654 15.4473 6.63113 15.5761 6.59423C15.7049 6.55733 15.8429 6.57181 15.9612 6.63463C16.0795 6.69745 16.1688 6.8037 16.2103 6.93104C16.3993 7.58897 16.5 8.28276 16.5 9C16.5 13.1421 13.1421 16.5 9 16.5C4.85793 16.5 1.5 13.1421 1.5 9C1.5 4.85793 4.85793 1.5 9 1.5C9.7 1.49931 10.3959 1.59656 11.069 1.78897C11.1346 1.80738 11.1959 1.83858 11.2495 1.88078C11.303 1.92297 11.3477 1.97533 11.3809 2.03485C11.4141 2.09437 11.4353 2.15986 11.4431 2.22757C11.4509 2.29528 11.4453 2.36388 11.4265 2.4294C11.4077 2.49493 11.3762 2.5561 11.3337 2.6094C11.2912 2.6627 11.2386 2.70708 11.1789 2.73998C11.1192 2.77288 11.0536 2.79366 10.9859 2.80112C10.9181 2.80858 10.8496 2.80258 10.7841 2.78345C10.2039 2.61784 9.6034 2.53404 9 2.53449C7.28524 2.53449 5.64071 3.21567 4.42819 4.42819C3.21567 5.64071 2.53448 7.28524 2.53448 9Z" fill="#222222"/>
<path d="M5.63776 8.99992C5.63968 9.4567 5.73468 9.90829 5.91696 10.3271C6.09924 10.746 6.36497 11.1232 6.69793 11.436C7.03089 11.7487 7.42408 11.9902 7.85352 12.1459C8.28295 12.3016 8.7396 12.3681 9.1956 12.3414C9.6516 12.3147 10.0974 12.1953 10.5057 11.9906C10.914 11.7859 11.2763 11.5001 11.5705 11.1506C11.8647 10.8012 12.0846 10.3955 12.2167 9.95822C12.3489 9.52098 12.3905 9.06139 12.3391 8.60751C12.3247 8.51559 12.3353 8.42146 12.37 8.3351C12.4046 8.24874 12.462 8.17336 12.536 8.11695C12.61 8.06054 12.6979 8.0252 12.7904 8.01468C12.8828 8.00415 12.9764 8.01883 13.0612 8.05716C13.2343 8.13441 13.3509 8.29923 13.366 8.4882C13.4731 9.39526 13.2949 10.3132 12.8563 11.1143C12.4176 11.9154 11.7403 12.56 10.9184 12.9584C10.0965 13.3569 9.17095 13.4893 8.2703 13.3375C7.36965 13.1856 6.5387 12.7569 5.89293 12.111C5.24734 11.4657 4.81853 10.6356 4.66598 9.7357C4.51343 8.8358 4.64469 7.91072 5.04157 7.08878C5.43844 6.26684 6.08125 5.58876 6.88085 5.1486C7.68045 4.70844 8.5972 4.52801 9.50396 4.63234C9.57251 4.6387 9.6391 4.65868 9.69983 4.69111C9.76055 4.72354 9.81419 4.76776 9.85761 4.82119C9.90102 4.87462 9.93333 4.93618 9.95264 5.00225C9.97196 5.06833 9.97789 5.1376 9.97008 5.206C9.96228 5.2744 9.9409 5.34055 9.9072 5.40058C9.8735 5.46061 9.82815 5.51331 9.77382 5.55558C9.71949 5.59786 9.65726 5.62887 9.59079 5.64678C9.52432 5.6647 9.45494 5.66917 9.38672 5.65992C8.91571 5.60547 8.4385 5.65124 7.98642 5.79422C7.53434 5.93721 7.11761 6.17419 6.76358 6.4896C6.40955 6.80501 6.12623 7.19172 5.9322 7.62436C5.73817 8.05699 5.63783 8.52577 5.63776 8.99992Z" fill="#222222"/>
</svg>
