<svg width="16" height="17" viewBox="0 0 16 17" fill="none" xmlns="http://www.w3.org/2000/svg">
<path d="M7 10C6.90114 9.99996 6.80452 9.97061 6.72234 9.91566C6.64015 9.86072 6.5761 9.78265 6.53828 9.69131C6.50045 9.59998 6.49055 9.49948 6.50983 9.40252C6.5291 9.30556 6.57668 9.21649 6.64656 9.14656L11.5822 4.21094C11.3268 4.07225 11.0407 3.99973 10.75 4H3.25C2.78602 4.0005 2.34119 4.18503 2.01311 4.51311C1.68503 4.84119 1.5005 5.28602 1.5 5.75V13.25C1.5005 13.714 1.68503 14.1588 2.01311 14.4869C2.34119 14.815 2.78602 14.9995 3.25 15H10.75C11.214 14.9995 11.6588 14.815 11.9869 14.4869C12.315 14.1588 12.4995 13.714 12.5 13.25V5.75C12.5003 5.45934 12.4278 5.17325 12.2891 4.91781L7.35344 9.85344C7.30711 9.89999 7.25203 9.9369 7.19137 9.96206C7.13071 9.98721 7.06567 10.0001 7 10Z" fill="#7AC74F"/>
<path d="M14 2H10.5C10.3674 2 10.2402 2.05268 10.1464 2.14645C10.0527 2.24021 10 2.36739 10 2.5C10 2.63261 10.0527 2.75979 10.1464 2.85355C10.2402 2.94732 10.3674 3 10.5 3H12.7928L11.5822 4.21094C11.8812 4.37333 12.1267 4.61885 12.2891 4.91781L13.5 3.70719V6C13.5 6.13261 13.5527 6.25979 13.6464 6.35355C13.7402 6.44732 13.8674 6.5 14 6.5C14.1326 6.5 14.2598 6.44732 14.3536 6.35355C14.4473 6.25979 14.5 6.13261 14.5 6V2.5C14.5 2.36739 14.4473 2.24021 14.3536 2.14645C14.2598 2.05268 14.1326 2 14 2Z" fill="#7AC74F"/>
</svg>
