<svg width="14" height="13" viewBox="0 0 14 13" fill="none" xmlns="http://www.w3.org/2000/svg">
<path d="M13.1875 0.3125H0.8125C0.663316 0.3125 0.520242 0.371763 0.414753 0.477253C0.309263 0.582742 0.25 0.725816 0.25 0.875V11.5625C0.25 11.8609 0.368526 12.147 0.579505 12.358C0.790483 12.569 1.07663 12.6875 1.375 12.6875H4.1875C4.48587 12.6875 4.77202 12.569 4.983 12.358C5.19397 12.147 5.3125 11.8609 5.3125 11.5625V8.1875H8.6875V9.3125C8.6875 9.61087 8.80603 9.89702 9.017 10.108C9.22798 10.319 9.51413 10.4375 9.8125 10.4375H12.625C12.9234 10.4375 13.2095 10.319 13.4205 10.108C13.6315 9.89702 13.75 9.61087 13.75 9.3125V0.875C13.75 0.725816 13.6907 0.582742 13.5852 0.477253C13.4798 0.371763 13.3367 0.3125 13.1875 0.3125ZM4.1875 11.5625H1.375V5.9375H4.1875V11.5625ZM4.1875 4.8125H1.375V1.4375H4.1875V4.8125ZM8.6875 7.0625H5.3125V1.4375H8.6875V7.0625ZM12.625 9.3125H9.8125V5.9375H12.625V9.3125ZM12.625 4.8125H9.8125V1.4375H12.625V4.8125Z" fill="#5C5C5C"/>
</svg>
