<svg width="18" height="18" viewBox="0 0 18 18" fill="none" xmlns="http://www.w3.org/2000/svg">
<path d="M14.7941 3.17647H12.8824V2.44118C12.8824 2.32417 12.8359 2.21195 12.7531 2.12922C12.6704 2.04648 12.5582 2 12.4412 2C12.3242 2 12.212 2.04648 12.1292 2.12922C12.0465 2.21195 12 2.32417 12 2.44118V3.17647H5.82353V2.44118C5.82353 2.32417 5.77705 2.21195 5.69431 2.12922C5.61157 2.04648 5.49936 2 5.38235 2C5.26535 2 5.15313 2.04648 5.07039 2.12922C4.98766 2.21195 4.94118 2.32417 4.94118 2.44118V3.17647H3.02941C2.75639 3.17647 2.49456 3.28493 2.30151 3.47798C2.10846 3.67103 2 3.93287 2 4.20588V15.9706C2 16.2436 2.10846 16.5054 2.30151 16.6985C2.49456 16.8915 2.75639 17 3.02941 17H14.7941C15.0671 17 15.329 16.8915 15.522 16.6985C15.7151 16.5054 15.8235 16.2436 15.8235 15.9706V4.20588C15.8235 3.93287 15.7151 3.67103 15.522 3.47798C15.329 3.28493 15.0671 3.17647 14.7941 3.17647ZM3.02941 4.05882H4.94118V4.79412C4.94118 4.91113 4.98766 5.02334 5.07039 5.10608C5.15313 5.18881 5.26535 5.23529 5.38235 5.23529C5.49936 5.23529 5.61157 5.18881 5.69431 5.10608C5.77705 5.02334 5.82353 4.91113 5.82353 4.79412V4.05882H12V4.79412C12 4.91113 12.0465 5.02334 12.1292 5.10608C12.212 5.18881 12.3242 5.23529 12.4412 5.23529C12.5582 5.23529 12.6704 5.18881 12.7531 5.10608C12.8359 5.02334 12.8824 4.91113 12.8824 4.79412V4.05882H14.7941C14.8331 4.05882 14.8705 4.07432 14.8981 4.1019C14.9257 4.12947 14.9412 4.16688 14.9412 4.20588V6.70588H2.88235V4.20588C2.88235 4.16688 2.89785 4.12947 2.92543 4.1019C2.953 4.07432 2.99041 4.05882 3.02941 4.05882ZM14.7941 16.1176H3.02941C2.99041 16.1176 2.953 16.1022 2.92543 16.0746C2.89785 16.047 2.88235 16.0096 2.88235 15.9706V7.58824H14.9412V15.9706C14.9412 16.0096 14.9257 16.047 14.8981 16.0746C14.8705 16.1022 14.8331 16.1176 14.7941 16.1176Z" fill="#222222" stroke="#222222" stroke-width="0.20915"/>
<path fill-rule="evenodd" clip-rule="evenodd" d="M5.24014 12.6336C5.14404 12.7359 5.14032 12.7767 5.14032 13.7276C5.14032 15.0332 5.01065 14.915 6.4425 14.915H7.53213L7.64481 14.8023C7.75735 14.6898 7.75753 14.6881 7.75753 13.7212C7.75753 12.7542 7.75735 12.7526 7.64481 12.6401L7.53213 12.5273H6.43607C5.34974 12.5273 5.33909 12.5283 5.24014 12.6336ZM9.47732 12.6401C9.36478 12.7526 9.3646 12.7542 9.3646 13.7212C9.3646 14.6881 9.36478 14.6898 9.47732 14.8023L9.59 14.915H10.6861H11.7821L11.8935 14.7965C12.0039 14.6789 12.0048 14.6706 12.0048 13.7212C12.0048 12.7717 12.0039 12.7634 11.8935 12.6459L11.7821 12.5273H10.6861H9.59L9.47732 12.6401ZM5.87497 13.7212V14.1803H6.42597H6.97696V13.7212V13.262H6.42597H5.87497V13.7212ZM10.1452 13.7212V14.1803H10.6962H11.2472V13.7212V13.262H10.6962H10.1452V13.7212Z" fill="#222222" stroke="#222222" stroke-width="0.314066"/>
<path fill-rule="evenodd" clip-rule="evenodd" d="M11.7181 8.63744C11.6642 8.66812 11.4195 8.93085 11.1742 9.22127C10.9288 9.51169 10.7099 9.76849 10.6876 9.79196C10.6633 9.81753 10.5266 9.71886 10.3458 9.5452C10.0617 9.27242 10.0346 9.25736 9.8741 9.28307C9.66303 9.31686 9.54319 9.45682 9.54319 9.6695C9.54319 9.81455 9.59438 9.88324 10.0184 10.3072C10.4514 10.7403 10.5087 10.7824 10.6647 10.7824C10.8689 10.7824 10.8707 10.7807 11.6556 9.84843C11.9711 9.47362 12.2435 9.11525 12.2609 9.05202C12.3474 8.73772 12.0034 8.47499 11.7181 8.63744Z" fill="#222222"/>
<path fill-rule="evenodd" clip-rule="evenodd" d="M7.35606 8.63744C7.3022 8.66812 7.05742 8.93085 6.81214 9.22127C6.56681 9.51169 6.34788 9.76849 6.32556 9.79196C6.30127 9.81753 6.16458 9.71886 5.98372 9.5452C5.69964 9.27242 5.67254 9.25736 5.51207 9.28307C5.30099 9.31686 5.18115 9.45682 5.18115 9.6695C5.18115 9.81455 5.23235 9.88324 5.65634 10.3072C6.08932 10.7403 6.14667 10.7824 6.3027 10.7824C6.50684 10.7824 6.50868 10.7807 7.29352 9.84843C7.60905 9.47362 7.88147 9.11525 7.89888 9.05202C7.98534 8.73772 7.64138 8.47499 7.35606 8.63744Z" fill="#222222"/>
<path fill-rule="evenodd" clip-rule="evenodd" d="M11.7181 8.63744C11.6642 8.66812 11.4195 8.93085 11.1742 9.22127C10.9288 9.51169 10.7099 9.76849 10.6876 9.79196C10.6633 9.81753 10.5266 9.71886 10.3458 9.5452C10.0617 9.27242 10.0346 9.25736 9.8741 9.28307C9.66303 9.31686 9.54319 9.45682 9.54319 9.6695C9.54319 9.81455 9.59438 9.88324 10.0184 10.3072C10.4514 10.7403 10.5087 10.7824 10.6647 10.7824C10.8689 10.7824 10.8707 10.7807 11.6556 9.84843C11.9711 9.47362 12.2435 9.11525 12.2609 9.05202C12.3474 8.73772 12.0034 8.47499 11.7181 8.63744Z" stroke="#222222" stroke-width="0.318832"/>
<path fill-rule="evenodd" clip-rule="evenodd" d="M7.35606 8.63744C7.3022 8.66812 7.05742 8.93085 6.81214 9.22127C6.56681 9.51169 6.34788 9.76849 6.32556 9.79196C6.30127 9.81753 6.16458 9.71886 5.98372 9.5452C5.69964 9.27242 5.67254 9.25736 5.51207 9.28307C5.30099 9.31686 5.18115 9.45682 5.18115 9.6695C5.18115 9.81455 5.23235 9.88324 5.65634 10.3072C6.08932 10.7403 6.14667 10.7824 6.3027 10.7824C6.50684 10.7824 6.50868 10.7807 7.29352 9.84843C7.60905 9.47362 7.88147 9.11525 7.89888 9.05202C7.98534 8.73772 7.64138 8.47499 7.35606 8.63744Z" stroke="#222222" stroke-width="0.318832"/>
</svg>
