<svg width="16" height="16" viewBox="0 0 16 16" fill="none" xmlns="http://www.w3.org/2000/svg">
<g clip-path="url(#clip0_849_71266)">
<path fill-rule="evenodd" clip-rule="evenodd" d="M0.845525 0.550678C0.516582 0.653535 0.192958 0.960822 0.071399 1.28577C0.00166855 1.47209 0 1.53869 0 4.11326C0 6.65682 0.00232898 6.75283 0.0663934 6.83198C0.132682 6.91391 0.134316 6.91405 1.03827 6.92437C2.17451 6.93734 2.15139 6.94506 2.2076 6.53317C2.28167 5.99038 2.74719 5.61072 3.28571 5.65396C3.78025 5.69366 4.13099 6.03863 4.20159 6.55472C4.22481 6.7245 4.25091 6.78728 4.32478 6.85078C4.41759 6.93063 4.42733 6.93143 5.31842 6.93143H6.21831L6.31585 6.84759L6.41339 6.76378L6.42396 6.01909L6.43453 5.27441L6.61866 5.21636C6.85458 5.14201 7.18651 4.9275 7.32423 4.7604C7.65029 4.36482 7.78774 3.82199 7.68005 3.35495C7.55598 2.81667 7.03693 2.27517 6.55922 2.18555L6.43077 2.16143V1.45043C6.43077 0.731504 6.41687 0.63897 6.29475 0.54522C6.21178 0.481538 1.05013 0.486717 0.845525 0.550678ZM0.885674 1.17606C0.807218 1.22309 0.708115 1.32585 0.659728 1.41035L0.573555 1.56087L0.563718 3.95158L0.553881 6.34227L1.09626 6.33271L1.63863 6.32311L1.69759 6.14886C1.96514 5.35805 2.80017 4.90021 3.59654 5.10763C4.1207 5.24417 4.55865 5.65435 4.7172 6.15727L4.77494 6.34049H5.3074H5.83984V5.62984C5.83984 4.93667 5.84182 4.91686 5.92048 4.82544C5.9843 4.75122 6.0467 4.72547 6.22005 4.70176C7.06335 4.58642 7.41357 3.62313 6.83546 3.00908C6.68717 2.85157 6.50627 2.76439 6.21088 2.70811C5.8341 2.63633 5.83984 2.65034 5.83984 1.80033V1.09159L3.43264 1.09191L1.02545 1.09225L0.885674 1.17606ZM9.24457 3.52135L9.14213 3.62379V4.49723C9.14213 5.19759 9.15224 5.3902 9.19322 5.46942C9.24808 5.57551 9.39804 5.64507 9.57313 5.64562C9.74509 5.64614 10.0184 5.79461 10.175 5.97241C10.7054 6.57499 10.3682 7.49445 9.56982 7.62241C9.30609 7.66468 9.21818 7.70921 9.17522 7.82221C9.157 7.87008 9.14213 8.17417 9.14213 8.49793V9.08661H8.60768H8.07323L8.05227 8.98177C7.97871 8.61403 7.59047 8.13576 7.22638 7.96432C6.57965 7.65984 5.83806 7.79058 5.36532 8.29249C5.20051 8.46741 5.05052 8.72436 5.00147 8.91572L4.95767 9.08661H4.25328C3.49507 9.08661 3.40184 9.10395 3.33854 9.2568C3.31195 9.32103 3.30344 10.1341 3.31011 11.9724L3.31967 14.5962L3.41126 14.7916C3.54012 15.0664 3.72394 15.2548 3.99184 15.3867L4.22199 15.5H9.45424H14.6865L14.8505 15.4243C15.0804 15.318 15.3463 15.0571 15.4595 14.8265L15.5555 14.631V9.46898V4.30698L15.4757 4.14492C15.3477 3.88505 15.142 3.67861 14.8853 3.55221L14.6533 3.43796L12.0001 3.42843L9.34704 3.41891L9.24457 3.52135ZM9.73306 4.54645V5.08135L9.85087 5.10346C10.1953 5.16808 10.6683 5.54183 10.8464 5.89017C11.0765 6.34032 11.076 6.93115 10.8451 7.38332C10.6807 7.70528 10.2398 8.0661 9.90617 8.15161L9.73306 8.19596V8.64128V9.08661H10.4437C11.1369 9.08661 11.1567 9.08859 11.2481 9.16725C11.322 9.23076 11.3481 9.29354 11.3713 9.46331C11.4216 9.83087 11.5893 10.085 11.8893 10.2483C12.5171 10.59 13.2843 10.1813 13.3691 9.46008C13.4111 9.10218 13.4508 9.08661 14.3204 9.08661H15.0191L15.0092 6.7837C15.0004 4.71434 14.9935 4.47022 14.9416 4.3765C14.8653 4.23871 14.71 4.09431 14.5886 4.0485C14.523 4.02368 13.7082 4.01151 12.1119 4.01151H9.73306V4.54645ZM6.222 8.42184C5.85715 8.54135 5.52991 8.93307 5.52775 9.25283C5.52671 9.40606 5.44457 9.59387 5.3584 9.64C5.31481 9.66333 5.02369 9.67754 4.59004 9.67754H3.89183L3.90122 12.1076L3.91061 14.5376L4.01736 14.6712C4.23312 14.9412 4.07405 14.9263 6.75231 14.9264L9.14213 14.9264V14.3915V13.8566L9.02915 13.835C8.5352 13.7407 8.01841 13.2077 7.89285 12.6631C7.78516 12.196 7.92261 11.6532 8.24867 11.2576C8.38681 11.0901 8.71853 10.876 8.95609 10.8011L9.14213 10.7424V10.21V9.67754H8.43147C7.74394 9.67754 7.7179 9.67501 7.63208 9.59933C7.56294 9.53836 7.53641 9.4704 7.51177 9.29107C7.4744 9.01931 7.40717 8.87387 7.23514 8.69259C7.04295 8.49011 6.87297 8.41638 6.56982 8.40397C6.42643 8.3981 6.2699 8.40613 6.222 8.42184ZM9.73306 10.4797V11.1081L9.63146 11.2097C9.5539 11.2873 9.49777 11.3113 9.39432 11.3113C9.15843 11.3113 8.93141 11.4132 8.73928 11.6053C8.51285 11.8317 8.43113 12.0557 8.45473 12.3849C8.47416 12.6551 8.56005 12.8409 8.74811 13.0195C8.92553 13.1878 9.06308 13.2529 9.36136 13.3098C9.7389 13.3817 9.73306 13.3675 9.73306 14.2177V14.9264H12.1333C14.743 14.9264 14.6223 14.9353 14.8126 14.7297C15.0074 14.5191 14.9986 14.6355 15.0092 12.1534L15.0191 9.84958L14.4742 9.85913L13.9294 9.86873L13.8878 10.0078C13.7581 10.4411 13.4686 10.7789 13.0492 10.9862C12.8123 11.1033 12.7496 11.1188 12.46 11.1314C12.0449 11.1496 11.7428 11.0649 11.4477 10.8476C11.1412 10.622 10.9493 10.3524 10.8438 9.99908L10.7996 9.85135H10.2664H9.73306V10.4797Z" fill="black" stroke="black" stroke-width="0.2"/>
</g>
<defs>
<clipPath id="clip0_849_71266">
<rect width="16" height="16" fill="white"/>
</clipPath>
</defs>
</svg>
