<svg width="13" height="11" viewBox="0 0 13 11" fill="none" xmlns="http://www.w3.org/2000/svg">
<path d="M12.8328 3.22204C12.8098 4.01986 12.4817 4.77849 11.9162 5.34169L9.92541 7.33358C9.63547 7.6251 9.29059 7.85623 8.91072 8.01356C8.53085 8.1709 8.12355 8.25132 7.71239 8.25018H7.70953C7.29135 8.24988 6.87747 8.16578 6.49234 8.00285C6.1072 7.83991 5.75863 7.60145 5.46721 7.30153C5.17579 7.00162 4.94743 6.64635 4.79562 6.2567C4.64381 5.86704 4.57163 5.45092 4.58334 5.03291C4.58676 4.91136 4.63832 4.79614 4.72669 4.71261C4.81505 4.62908 4.93298 4.58408 5.05453 4.58749C5.17608 4.59091 5.29129 4.64248 5.37482 4.73084C5.45835 4.81921 5.50336 4.93714 5.49994 5.05868C5.4916 5.35425 5.54258 5.64848 5.64988 5.92401C5.75718 6.19953 5.91862 6.45075 6.12466 6.66283C6.33069 6.8749 6.57715 7.04352 6.84946 7.15873C7.12178 7.27393 7.41442 7.33339 7.7101 7.33358C8.00076 7.33432 8.28868 7.27744 8.55722 7.16623C8.82576 7.05502 9.0696 6.89168 9.27462 6.68565L11.2654 4.69491C11.6761 4.279 11.9056 3.71749 11.9038 3.13296C11.9019 2.54844 11.6689 1.98837 11.2556 1.57505C10.8423 1.16172 10.2822 0.928707 9.69769 0.926878C9.11316 0.925049 8.55165 1.15455 8.13575 1.56528L7.50558 2.19545C7.41893 2.27777 7.30356 2.32298 7.18405 2.32145C7.06454 2.31992 6.95036 2.27177 6.86585 2.18726C6.78134 2.10275 6.73318 1.98856 6.73165 1.86906C6.73012 1.74955 6.77534 1.63417 6.85766 1.54752L7.48782 0.91736C7.77855 0.626528 8.12374 0.395821 8.50365 0.238418C8.88356 0.0810153 9.29076 0 9.70199 0C10.1132 0 10.5204 0.0810153 10.9003 0.238418C11.2802 0.395821 11.6254 0.626528 11.9162 0.91736C12.2173 1.21924 12.4538 1.57924 12.6114 1.97546C12.769 2.37167 12.8443 2.7958 12.8328 3.22204ZM5.32808 8.80358L4.69791 9.43374C4.49238 9.64065 4.24777 9.80463 3.97829 9.91615C3.70882 10.0277 3.41987 10.0845 3.12823 10.0834C2.69073 10.083 2.26314 9.95301 1.89951 9.70974C1.53587 9.46648 1.2525 9.12089 1.08519 8.71663C0.917887 8.31238 0.87416 7.86761 0.959534 7.43852C1.04491 7.00942 1.25555 6.61526 1.56485 6.30584L3.55216 4.31509C3.86517 4.00043 4.26557 3.78715 4.70135 3.70297C5.13712 3.61878 5.58815 3.66757 5.99584 3.843C6.40353 4.01843 6.74906 4.3124 6.98754 4.68672C7.22602 5.06104 7.34643 5.49842 7.33315 5.94206C7.32973 6.06361 7.37473 6.18154 7.45826 6.2699C7.5418 6.35827 7.65701 6.40983 7.77856 6.41325C7.90011 6.41667 8.01803 6.37166 8.1064 6.28813C8.19477 6.2046 8.24633 6.08939 8.24975 5.96784C8.26075 5.54227 8.18518 5.1189 8.02762 4.72341C7.87005 4.32793 7.63378 3.96858 7.33315 3.66717C6.74605 3.08033 5.94993 2.75067 5.11984 2.75067C4.28974 2.75067 3.49362 3.08033 2.90653 3.66717L0.916929 5.65791C0.479384 6.09528 0.181308 6.65254 0.0603704 7.25926C-0.060567 7.86598 0.00106216 8.49494 0.23747 9.06664C0.473877 9.63835 0.874452 10.1271 1.38857 10.4713C1.90269 10.8154 2.50728 10.9994 3.12594 11C3.53719 11.0012 3.94459 10.9208 4.32456 10.7634C4.70453 10.6061 5.04951 10.375 5.33954 10.0834L5.9697 9.45322C6.04387 9.36586 6.08261 9.25388 6.0783 9.13936C6.07399 9.02484 6.02693 8.9161 5.9464 8.83456C5.86587 8.75303 5.75772 8.70462 5.64326 8.69888C5.52881 8.69315 5.41635 8.7305 5.32808 8.80358Z" fill="#5C5C5C"/>
</svg>
