<svg width="18" height="18" viewBox="0 0 18 18" fill="none" xmlns="http://www.w3.org/2000/svg">
<path d="M6.1875 7.875V5.625H12.75C13.0484 5.625 13.3345 5.50647 13.5455 5.2955C13.7565 5.08452 13.875 4.79837 13.875 4.5V2.25C13.875 1.95163 13.7565 1.66548 13.5455 1.4545C13.3345 1.24353 13.0484 1.125 12.75 1.125H4.5C4.20163 1.125 3.91548 1.24353 3.7045 1.4545C3.49353 1.66548 3.375 1.95163 3.375 2.25V4.5C3.375 4.79837 3.49353 5.08452 3.7045 5.2955C3.91548 5.50647 4.20163 5.625 4.5 5.625H5.0625V12.75C5.0625 13.1976 5.24029 13.6268 5.55676 13.9432C5.87322 14.2597 6.30245 14.4375 6.75 14.4375H11.25V15C11.25 15.2984 11.3685 15.5845 11.5795 15.7955C11.7905 16.0065 12.0766 16.125 12.375 16.125H14.625C14.9234 16.125 15.2095 16.0065 15.4205 15.7955C15.6315 15.5845 15.75 15.2984 15.75 15V12.75C15.75 12.4516 15.6315 12.1655 15.4205 11.9545C15.2095 11.7435 14.9234 11.625 14.625 11.625H12.375C12.0766 11.625 11.7905 11.7435 11.5795 11.9545C11.3685 12.1655 11.25 12.4516 11.25 12.75V13.3125H6.75C6.60082 13.3125 6.45774 13.2532 6.35225 13.1477C6.24676 13.0423 6.1875 12.8992 6.1875 12.75V9V7.875ZM4.5 2.25H12.75V4.5H4.5V2.25ZM12.375 12.75H14.625V15H12.375V12.75Z" fill="#374151"/>
</svg>
