<svg width="14" height="13" viewBox="0 0 14 13" fill="none" xmlns="http://www.w3.org/2000/svg">
<path d="M3.69312 1.23181C3.69312 1.01881 3.7628 0.814544 3.88683 0.663933C4.01086 0.513323 4.17909 0.428711 4.35449 0.428711H13.3227C13.4982 0.428711 13.6664 0.513323 13.7904 0.663933C13.9144 0.814544 13.9841 1.01881 13.9841 1.23181C13.9841 1.4448 13.9144 1.64908 13.7904 1.79969C13.6664 1.9503 13.4982 2.03491 13.3227 2.03491H4.35449C4.17909 2.03491 4.01086 1.9503 3.88683 1.79969C3.7628 1.64908 3.69312 1.4448 3.69312 1.23181ZM13.3227 5.69704H4.35449C4.17909 5.69704 4.01086 5.78165 3.88683 5.93226C3.7628 6.08287 3.69312 6.28714 3.69312 6.50014C3.69312 6.71313 3.7628 6.9174 3.88683 7.06801C4.01086 7.21863 4.17909 7.30324 4.35449 7.30324H13.3227C13.4982 7.30324 13.6664 7.21863 13.7904 7.06801C13.9144 6.9174 13.9841 6.71313 13.9841 6.50014C13.9841 6.28714 13.9144 6.08287 13.7904 5.93226C13.6664 5.78165 13.4982 5.69704 13.3227 5.69704ZM13.3227 10.9654H4.35449C4.17909 10.9654 4.01086 11.05 3.88683 11.2006C3.7628 11.3512 3.69312 11.5555 3.69312 11.7685C3.69312 11.9815 3.7628 12.1857 3.88683 12.3363C4.01086 12.487 4.17909 12.5716 4.35449 12.5716H13.3227C13.4982 12.5716 13.6664 12.487 13.7904 12.3363C13.9144 12.1857 13.9841 11.9815 13.9841 11.7685C13.9841 11.5555 13.9144 11.3512 13.7904 11.2006C13.6664 11.05 13.4982 10.9654 13.3227 10.9654ZM1.04762 0.428711H0.677245C0.501837 0.428711 0.333614 0.513323 0.209582 0.663933C0.0855497 0.814544 0.0158691 1.01881 0.0158691 1.23181C0.0158691 1.4448 0.0855497 1.64908 0.209582 1.79969C0.333614 1.9503 0.501837 2.03491 0.677245 2.03491H1.04762C1.22302 2.03491 1.39125 1.9503 1.51528 1.79969C1.63931 1.64908 1.70899 1.4448 1.70899 1.23181C1.70899 1.01881 1.63931 0.814544 1.51528 0.663933C1.39125 0.513323 1.22302 0.428711 1.04762 0.428711ZM1.04762 5.69704H0.677245C0.501837 5.69704 0.333614 5.78165 0.209582 5.93226C0.0855497 6.08287 0.0158691 6.28714 0.0158691 6.50014C0.0158691 6.71313 0.0855497 6.9174 0.209582 7.06801C0.333614 7.21863 0.501837 7.30324 0.677245 7.30324H1.04762C1.22302 7.30324 1.39125 7.21863 1.51528 7.06801C1.63931 6.9174 1.70899 6.71313 1.70899 6.50014C1.70899 6.28714 1.63931 6.08287 1.51528 5.93226C1.39125 5.78165 1.22302 5.69704 1.04762 5.69704ZM1.04762 10.9654H0.677245C0.501837 10.9654 0.333614 11.05 0.209582 11.2006C0.0855497 11.3512 0.0158691 11.5555 0.0158691 11.7685C0.0158691 11.9815 0.0855497 12.1857 0.209582 12.3363C0.333614 12.487 0.501837 12.5716 0.677245 12.5716H1.04762C1.22302 12.5716 1.39125 12.487 1.51528 12.3363C1.63931 12.1857 1.70899 11.9815 1.70899 11.7685C1.70899 11.5555 1.63931 11.3512 1.51528 11.2006C1.39125 11.05 1.22302 10.9654 1.04762 10.9654Z" fill="#5C5C5C"/>
</svg>
