<svg width="16" height="16" viewBox="0 0 16 16" fill="none" xmlns="http://www.w3.org/2000/svg">
<g clip-path="url(#clip0_914_6778)">
<path d="M1.88159 2.5H15.2501C15.449 2.5 15.6398 2.57902 15.7804 2.71967C15.9211 2.86032 16.0001 3.05109 16.0001 3.25C16.0001 3.44891 15.9211 3.63968 15.7804 3.78033C15.6398 3.92098 15.449 4 15.2501 4H1.88159C1.68268 4 1.49192 3.92098 1.35127 3.78033C1.21061 3.63968 1.13159 3.44891 1.13159 3.25C1.13159 3.05109 1.21061 2.86032 1.35127 2.71967C1.49192 2.57902 1.68268 2.5 1.88159 2.5ZM1.88159 7.5H15.2501C15.449 7.5 15.6398 7.57902 15.7804 7.71967C15.9211 7.86032 16.0001 8.05109 16.0001 8.25C16.0001 8.44891 15.9211 8.63968 15.7804 8.78033C15.6398 8.92098 15.449 9 15.2501 9H1.88159C1.68268 9 1.49192 8.92098 1.35127 8.78033C1.21061 8.63968 1.13159 8.44891 1.13159 8.25C1.13159 8.05109 1.21061 7.86032 1.35127 7.71967C1.49192 7.57902 1.68268 7.5 1.88159 7.5ZM1.88159 12.5H15.2501C15.449 12.5 15.6398 12.579 15.7804 12.7197C15.9211 12.8603 16.0001 13.0511 16.0001 13.25C16.0001 13.4489 15.9211 13.6397 15.7804 13.7803C15.6398 13.921 15.449 14 15.2501 14H1.88159C1.68268 14 1.49192 13.921 1.35127 13.7803C1.21061 13.6397 1.13159 13.4489 1.13159 13.25C1.13159 13.0511 1.21061 12.8603 1.35127 12.7197C1.49192 12.579 1.68268 12.5 1.88159 12.5Z" fill="#5C5C5C" fill-opacity="0.8"/>
</g>
<defs>
<clipPath id="clip0_914_6778">
<rect width="16" height="16" fill="white"/>
</clipPath>
</defs>
</svg>
