<svg width="28" height="28" viewBox="0 0 28 28" fill="none" xmlns="http://www.w3.org/2000/svg">
<path d="M14.0004 25.9531C20.5279 25.9531 25.9534 20.5391 25.9534 14.0001C25.9534 7.47262 20.5159 2.04712 13.9884 2.04712C7.44985 2.04712 2.04785 7.47262 2.04785 14.0001C2.04785 20.5391 7.46135 25.9531 14.0004 25.9531ZM14.0009 23.9611C8.46885 23.9611 4.05035 19.5311 4.05035 14.0001C4.05035 8.48012 8.45685 4.03912 13.9884 4.03912C19.5079 4.03912 23.9489 8.48062 23.9609 14.0001C23.9724 19.5316 19.5194 23.9611 13.9999 23.9611M13.9999 15.6526C15.1484 15.6526 15.9449 14.7616 15.9449 13.5781V8.97312C15.9449 7.78912 15.1484 6.89812 13.9999 6.89812C12.8514 6.89812 12.0549 7.78912 12.0549 8.97312V13.5781C12.0549 14.7616 12.8514 15.6526 13.9999 15.6526ZM11.0234 20.3166H16.9884C17.2579 20.3166 17.4919 20.0706 17.4919 19.8011C17.4919 19.5196 17.2579 19.2851 16.9879 19.2851H14.5154V17.8906C16.8474 17.6566 18.4059 15.9221 18.4059 13.5666V12.0666C18.4067 12.0012 18.3947 11.9363 18.3704 11.8755C18.3461 11.8148 18.3101 11.7594 18.2644 11.7126C18.2187 11.6658 18.1642 11.6284 18.1041 11.6027C18.0439 11.577 17.9793 11.5633 17.9139 11.5626C17.6444 11.5626 17.3984 11.7851 17.3984 12.0666V13.5666C17.3984 15.5351 16.0154 16.9531 13.9999 16.9531C11.9724 16.9531 10.6014 15.5351 10.6014 13.5666V12.0666C10.6014 11.7851 10.3554 11.5626 10.0859 11.5626C9.82785 11.5626 9.59335 11.7851 9.59335 12.0666V13.5666C9.59335 15.9216 11.1524 17.6681 13.4844 17.8906V19.2856H11.0234C10.7419 19.2856 10.4959 19.5196 10.4959 19.8006C10.4959 20.0706 10.7419 20.3166 11.0234 20.3166Z" fill="#BE84FA"/>
</svg>
