<svg width="12" height="17" viewBox="0 0 12 17" fill="none" xmlns="http://www.w3.org/2000/svg">
<path d="M6.00003 11.9095C6.87771 11.9086 7.71918 11.5595 8.33979 10.9389C8.9604 10.3183 9.30946 9.47682 9.31037 8.59914V4.18534C9.31037 3.30739 8.96161 2.46539 8.3408 1.84458C7.71999 1.22377 6.87799 0.875 6.00003 0.875C5.12207 0.875 4.28007 1.22377 3.65926 1.84458C3.03845 2.46539 2.68968 3.30739 2.68968 4.18534V8.59914C2.6906 9.47682 3.03966 10.3183 3.66027 10.9389C4.28088 11.5595 5.12235 11.9086 6.00003 11.9095ZM3.79313 4.18534C3.79313 3.60004 4.02564 3.03871 4.43952 2.62483C4.85339 2.21096 5.41472 1.97845 6.00003 1.97845C6.58533 1.97845 7.14667 2.21096 7.56054 2.62483C7.97441 3.03871 8.20693 3.60004 8.20693 4.18534V8.59914C8.20693 9.18444 7.97441 9.74578 7.56054 10.1596C7.14667 10.5735 6.58533 10.806 6.00003 10.806C5.41472 10.806 4.85339 10.5735 4.43952 10.1596C4.02564 9.74578 3.79313 9.18444 3.79313 8.59914V4.18534ZM6.55175 14.0888V16.3233C6.55175 16.4696 6.49363 16.6099 6.39016 16.7134C6.28669 16.8169 6.14636 16.875 6.00003 16.875C5.8537 16.875 5.71337 16.8169 5.6099 16.7134C5.50643 16.6099 5.44831 16.4696 5.44831 16.3233V14.0888C4.08806 13.9504 2.82745 13.3125 1.91027 12.2985C0.993079 11.2845 0.484468 9.96641 0.482788 8.59914C0.482788 8.45281 0.540916 8.31248 0.644384 8.20901C0.747853 8.10554 0.888186 8.04741 1.03451 8.04741C1.18084 8.04741 1.32117 8.10554 1.42464 8.20901C1.52811 8.31248 1.58624 8.45281 1.58624 8.59914C1.58624 9.76975 2.05126 10.8924 2.87901 11.7202C3.70675 12.5479 4.82942 13.0129 6.00003 13.0129C7.17064 13.0129 8.29331 12.5479 9.12105 11.7202C9.9488 10.8924 10.4138 9.76975 10.4138 8.59914C10.4138 8.45281 10.4719 8.31248 10.5754 8.20901C10.6789 8.10554 10.8192 8.04741 10.9655 8.04741C11.1119 8.04741 11.2522 8.10554 11.3557 8.20901C11.4591 8.31248 11.5173 8.45281 11.5173 8.59914C11.5156 9.96641 11.007 11.2845 10.0898 12.2985C9.1726 13.3125 7.912 13.9504 6.55175 14.0888Z" fill="#7AC74F"/>
</svg>
