<svg width="18" height="18" viewBox="0 0 18 18" fill="none" xmlns="http://www.w3.org/2000/svg">
<path d="M13.7634 3.62057C13.6572 3.5143 13.531 3.43003 13.3922 3.37257C13.2534 3.31511 13.1045 3.2856 12.9543 3.28571H8.85714V1H7.71429V3.28571H3.14286C2.83989 3.28617 2.54946 3.40672 2.33524 3.62095C2.12101 3.83518 2.00045 4.12561 2 4.42857V7.85714C2.00045 8.16011 2.12101 8.45054 2.33524 8.66476C2.54946 8.87899 2.83989 8.99955 3.14286 9H7.71429V17H8.85714V9H12.9549C13.105 9.00004 13.2537 8.97049 13.3925 8.91303C13.5312 8.85558 13.6573 8.77134 13.7634 8.66514L16.2857 6.14286L13.7634 3.62057ZM12.9543 7.85714H3.14286V4.42857H12.9554L14.6697 6.14286L12.9543 7.85714Z" fill="#222222"/>
</svg>
