<svg width="18" height="18" viewBox="0 0 18 18" fill="none" xmlns="http://www.w3.org/2000/svg">
<path d="M2.10156 4.5C2.10156 4.35082 2.16083 4.20774 2.26632 4.10225C2.3718 3.99676 2.51488 3.9375 2.66406 3.9375H15.0391C15.1882 3.9375 15.3313 3.99676 15.4368 4.10225C15.5423 4.20774 15.6016 4.35082 15.6016 4.5C15.6016 4.64918 15.5423 4.79226 15.4368 4.89775C15.3313 5.00324 15.1882 5.0625 15.0391 5.0625H2.66406C2.51488 5.0625 2.3718 5.00324 2.26632 4.89775C2.16083 4.79226 2.10156 4.64918 2.10156 4.5ZM9.41406 8.4375H2.66406C2.51488 8.4375 2.3718 8.49676 2.26632 8.60225C2.16083 8.70774 2.10156 8.85082 2.10156 9C2.10156 9.14918 2.16083 9.29226 2.26632 9.39775C2.3718 9.50324 2.51488 9.5625 2.66406 9.5625H9.41406C9.56325 9.5625 9.70632 9.50324 9.81181 9.39775C9.9173 9.29226 9.97656 9.14918 9.97656 9C9.97656 8.85082 9.9173 8.70774 9.81181 8.60225C9.70632 8.49676 9.56325 8.4375 9.41406 8.4375Z" fill="#222222"/>
<path d="M12.4366 16.1644L15.2491 13.3519C15.3014 13.2997 15.3429 13.2376 15.3712 13.1693C15.3995 13.101 15.4141 13.0278 15.4141 12.9539C15.4141 12.88 15.3995 12.8068 15.3712 12.7385C15.3429 12.6702 15.3014 12.6082 15.2491 12.556L12.4366 9.74346C12.331 9.63791 12.1879 9.57861 12.0386 9.57861C11.8894 9.57861 11.7462 9.63791 11.6407 9.74346C11.5351 9.84901 11.4758 9.99216 11.4758 10.1414C11.4758 10.2907 11.5351 10.4338 11.6407 10.5394L13.4934 12.3914H2.66406C2.51488 12.3914 2.3718 12.4507 2.26631 12.5562C2.16083 12.6617 2.10156 12.8047 2.10156 12.9539C2.10156 13.1031 2.16083 13.2462 2.26631 13.3517C2.3718 13.4572 2.51488 13.5164 2.66406 13.5164H13.4934L11.6407 15.3685C11.5884 15.4207 11.5469 15.4828 11.5186 15.551C11.4904 15.6193 11.4758 15.6925 11.4758 15.7664C11.4758 15.8403 11.4904 15.9135 11.5186 15.9818C11.5469 16.0501 11.5884 16.1121 11.6407 16.1644C11.6929 16.2167 11.755 16.2581 11.8232 16.2864C11.8915 16.3147 11.9647 16.3292 12.0386 16.3292C12.1125 16.3292 12.1857 16.3147 12.254 16.2864C12.3223 16.2581 12.3843 16.2167 12.4366 16.1644Z" fill="#222222"/>
</svg>
