<svg width="19" height="19" viewBox="0 0 19 19" fill="none" xmlns="http://www.w3.org/2000/svg">
<path d="M17.25 10V17.5C17.25 17.8978 17.092 18.2794 16.8107 18.5607C16.5294 18.842 16.1478 19 15.75 19H1.5C1.10218 19 0.720644 18.842 0.43934 18.5607C0.158035 18.2794 0 17.8978 0 17.5V3.25C0 2.85218 0.158035 2.47064 0.43934 2.18934C0.720644 1.90804 1.10218 1.75 1.5 1.75H9C9.19891 1.75 9.38968 1.82902 9.53033 1.96967C9.67098 2.11032 9.75 2.30109 9.75 2.5C9.75 2.69891 9.67098 2.88968 9.53033 3.03033C9.38968 3.17098 9.19891 3.25 9 3.25H1.5V17.5H15.75V10C15.75 9.80109 15.829 9.61032 15.9697 9.46967C16.1103 9.32902 16.3011 9.25 16.5 9.25C16.6989 9.25 16.8897 9.32902 17.0303 9.46967C17.171 9.61032 17.25 9.80109 17.25 10ZM15.375 0.25C14.7075 0.25 14.055 0.44794 13.5 0.81879C12.9449 1.18964 12.5124 1.71674 12.2569 2.33344C12.0015 2.95014 11.9346 3.62874 12.0648 4.28343C12.1951 4.93812 12.5165 5.53948 12.9885 6.01149C13.4605 6.48349 14.0619 6.80493 14.7166 6.93515C15.3713 7.06538 16.0499 6.99854 16.6666 6.74309C17.2833 6.48765 17.8104 6.05507 18.1812 5.50005C18.5521 4.94503 18.75 4.29251 18.75 3.625C18.75 2.72989 18.3944 1.87145 17.7615 1.23851C17.1285 0.605579 16.2701 0.25 15.375 0.25Z" fill="#5C5C5C"/>
</svg>
