<svg width="18" height="18" viewBox="0 0 18 18" fill="none" xmlns="http://www.w3.org/2000/svg">
<rect x="0.5" y="0.5" width="17" height="17" rx="8.5" fill="white"/>
<rect x="0.5" y="0.5" width="17" height="17" rx="8.5" stroke="#5C5C5C"/>
<path d="M18 9C18 10.1162 17.7801 11.2215 17.353 12.2528C16.9258 13.2841 16.2997 14.2211 15.5104 15.0104C14.7211 15.7997 13.7841 16.4258 12.7528 16.853C11.7215 17.2801 10.6162 17.5 9.5 17.5C8.38376 17.5 7.27846 17.2801 6.24719 16.853C5.21592 16.4258 4.27889 15.7997 3.48959 15.0104C2.70029 14.2211 2.07419 13.2841 1.64702 12.2528C1.21986 11.2215 1 10.1162 1 9L9.5 9H18Z" fill="#5C5C5C"/>
</svg>
