<svg width="18" height="18" viewBox="0 0 18 18" fill="none" xmlns="http://www.w3.org/2000/svg">
<g clip-path="url(#clip0_934_8383)">
<path d="M9 0C7.21997 0 5.47991 0.527841 3.99987 1.51677C2.51983 2.50571 1.36628 3.91131 0.685088 5.55585C0.00389956 7.20038 -0.17433 9.00998 0.172936 10.7558C0.520203 12.5016 1.37737 14.1053 2.63604 15.364C3.89471 16.6226 5.49836 17.4798 7.24419 17.8271C8.99002 18.1743 10.7996 17.9961 12.4442 17.3149C14.0887 16.6337 15.4943 15.4802 16.4832 14.0001C17.4722 12.5201 18 10.78 18 9C17.9975 6.61382 17.0485 4.3261 15.3612 2.63882C13.6739 0.95154 11.3862 0.00251984 9 0ZM9 16.6154C7.49382 16.6154 6.02146 16.1687 4.76912 15.332C3.51678 14.4952 2.5407 13.3058 1.96431 11.9143C1.38792 10.5227 1.23711 8.99155 1.53095 7.51431C1.82479 6.03707 2.55008 4.68014 3.61511 3.61511C4.68014 2.55008 6.03708 1.82478 7.51431 1.53094C8.99155 1.2371 10.5228 1.38791 11.9143 1.9643C13.3058 2.54069 14.4952 3.51677 15.332 4.76912C16.1688 6.02146 16.6154 7.49382 16.6154 9C16.6131 11.019 15.81 12.9547 14.3824 14.3824C12.9547 15.81 11.019 16.6131 9 16.6154ZM7.61539 6.23077V11.7692C7.61539 11.9528 7.54245 12.1289 7.41261 12.2588C7.28278 12.3886 7.10669 12.4615 6.92308 12.4615C6.73947 12.4615 6.56338 12.3886 6.43354 12.2588C6.30371 12.1289 6.23077 11.9528 6.23077 11.7692V6.23077C6.23077 6.04716 6.30371 5.87107 6.43354 5.74123C6.56338 5.6114 6.73947 5.53846 6.92308 5.53846C7.10669 5.53846 7.28278 5.6114 7.41261 5.74123C7.54245 5.87107 7.61539 6.04716 7.61539 6.23077ZM11.7692 6.23077V11.7692C11.7692 11.9528 11.6963 12.1289 11.5665 12.2588C11.4366 12.3886 11.2605 12.4615 11.0769 12.4615C10.8933 12.4615 10.7172 12.3886 10.5874 12.2588C10.4576 12.1289 10.3846 11.9528 10.3846 11.7692V6.23077C10.3846 6.04716 10.4576 5.87107 10.5874 5.74123C10.7172 5.6114 10.8933 5.53846 11.0769 5.53846C11.2605 5.53846 11.4366 5.6114 11.5665 5.74123C11.6963 5.87107 11.7692 6.04716 11.7692 6.23077Z" fill="#5C5C5C"/>
</g>
<defs>
<clipPath id="clip0_934_8383">
<rect width="18" height="18" fill="white"/>
</clipPath>
</defs>
</svg>
