<svg width="36" height="34" viewBox="0 0 36 34" fill="none" xmlns="http://www.w3.org/2000/svg">
<path fill-rule="evenodd" clip-rule="evenodd" d="M5.61768 8.74967C5.62252 10.8147 6.44498 12.7937 7.90515 14.2539C9.36532 15.714 11.3444 16.5365 13.4093 16.5413C15.4743 16.5365 17.4534 15.714 18.9135 14.2539C20.3737 12.7937 21.1962 10.8147 21.201 8.74967C21.1962 6.68468 20.3737 4.70566 18.9135 3.24548C17.4534 1.78531 15.4743 0.96285 13.4093 0.958008C11.3444 0.96285 9.36532 1.78531 7.90515 3.24548C6.44498 4.70566 5.62252 6.68468 5.61768 8.74967ZM8.36768 8.74967C8.36768 5.96301 10.6227 3.70801 13.4093 3.70801C16.196 3.70801 18.451 5.96301 18.451 8.74967C18.451 11.5363 16.196 13.7913 13.4093 13.7913C10.6227 13.7913 8.36768 11.5363 8.36768 8.74967ZM0.117676 31.6663C0.117676 32.418 0.741009 33.0413 1.49268 33.0413C2.24434 33.0413 2.86768 32.418 2.86768 31.6663V27.9447C2.86768 26.4047 3.47268 24.498 5.15934 23.728C9.37601 21.8213 14.8577 21.5097 19.441 22.8847C20.156 23.1047 20.926 22.683 21.146 21.968C21.366 21.253 20.9627 20.483 20.2293 20.263C15.0227 18.7047 8.86268 19.053 4.02268 21.2347C1.60268 22.3347 0.117676 24.9013 0.117676 27.9447V31.6663ZM22.5742 16.2663C21.9875 16.2663 21.4375 15.8813 21.2542 15.2763C21.0342 14.543 21.4558 13.7913 22.1708 13.5713C23.2113 13.2655 24.1243 12.6299 24.7724 11.7603C25.4204 10.8907 25.7685 9.83417 25.7642 8.74967C25.7642 6.51301 24.2792 4.53301 22.1708 3.90967C21.9983 3.85847 21.8377 3.77364 21.6981 3.66008C21.5585 3.54651 21.4428 3.40645 21.3576 3.24797C21.2724 3.08949 21.2194 2.91572 21.2017 2.73666C21.1839 2.5576 21.2018 2.3768 21.2542 2.20467C21.4742 1.47134 22.2442 1.06801 22.9592 1.28801C26.2408 2.25967 28.5325 5.33967 28.5325 8.76801C28.5325 12.1963 26.2958 15.2397 22.9592 16.2297C22.8308 16.2663 22.7025 16.2847 22.5742 16.2847V16.2663ZM27.6177 31.6663C27.6177 32.418 28.241 33.0413 28.9927 33.0413C29.7443 33.0413 30.3677 32.418 30.3677 31.6663V27.5413H34.4927C35.2443 27.5413 35.8677 26.918 35.8677 26.1663C35.8677 25.4147 35.2443 24.7913 34.4927 24.7913H30.3677V20.6663C30.3677 19.9147 29.7443 19.2913 28.9927 19.2913C28.241 19.2913 27.6177 19.9147 27.6177 20.6663V24.7913H23.4927C22.741 24.7913 22.1177 25.4147 22.1177 26.1663C22.1177 26.918 22.741 27.5413 23.4927 27.5413H27.6177V31.6663Z" fill="black"/>
</svg>
