<svg width="12" height="12" viewBox="0 0 12 12" fill="none" xmlns="http://www.w3.org/2000/svg">
<path d="M11.7304 3.77125L8.22896 0.270441C8.14324 0.184702 8.04147 0.116689 7.92947 0.070286C7.81746 0.0238833 7.69741 0 7.57617 0C7.45493 0 7.33488 0.0238833 7.22287 0.070286C7.11086 0.116689 7.00909 0.184702 6.92337 0.270441L3.8293 3.37432C3.21429 3.18163 1.81004 2.94913 0.34464 4.13241C0.243635 4.21363 0.160865 4.31521 0.101719 4.43054C0.0425724 4.54586 0.00837597 4.67235 0.00135529 4.80177C-0.00566538 4.93119 0.014647 5.06064 0.0609702 5.18169C0.107293 5.30274 0.178589 5.41268 0.270216 5.50435L3.05794 8.29092L0.596759 10.7504C0.510154 10.837 0.461501 10.9544 0.461501 11.0769C0.461501 11.1994 0.510154 11.3169 0.596759 11.4035C0.683363 11.4901 0.800824 11.5387 0.923301 11.5387C1.04578 11.5387 1.16324 11.4901 1.24984 11.4035L3.7093 8.94227L6.49529 11.7283C6.58094 11.8143 6.68271 11.8825 6.79477 11.9292C6.90684 11.9758 7.027 11.9999 7.14837 12C7.1703 12 7.19164 12 7.21357 12C7.34515 11.9909 7.47323 11.9535 7.58911 11.8905C7.70499 11.8275 7.80594 11.7403 7.88511 11.6348C9.0182 10.129 8.90916 8.90477 8.64608 8.17322L11.7309 5.07684C11.8166 4.99109 11.8846 4.88929 11.9309 4.77726C11.9773 4.66523 12.0011 4.54517 12.0011 4.42393C12.001 4.30269 11.9771 4.18265 11.9306 4.07066C11.8842 3.95867 11.8161 3.85693 11.7304 3.77125Z" fill="#F4A261"/>
</svg>
