<svg width="18" height="18" viewBox="0 0 18 18" fill="none" xmlns="http://www.w3.org/2000/svg">
<path d="M16.5462 5.72116L12.2789 1.4546C12.1745 1.3501 12.0504 1.26721 11.9139 1.21066C11.7774 1.15411 11.6311 1.125 11.4833 1.125C11.3356 1.125 11.1893 1.15411 11.0528 1.21066C10.9163 1.26721 10.7922 1.3501 10.6878 1.4546L6.9169 5.23741C6.16737 5.00256 4.45596 4.7192 2.67003 6.16131C2.54693 6.2603 2.44605 6.3841 2.37397 6.52465C2.30188 6.66521 2.26021 6.81937 2.25165 6.97709C2.2431 7.13482 2.26785 7.29259 2.32431 7.44011C2.38076 7.58764 2.46765 7.72163 2.57932 7.83335L5.97682 11.2294L2.97729 14.2269C2.87174 14.3324 2.81245 14.4756 2.81245 14.6248C2.81245 14.7741 2.87174 14.9173 2.97729 15.0228C3.08284 15.1283 3.22599 15.1876 3.37526 15.1876C3.52453 15.1876 3.66768 15.1283 3.77323 15.0228L6.77065 12.0233L10.166 15.4187C10.2704 15.5235 10.3945 15.6067 10.531 15.6635C10.6676 15.7203 10.8141 15.7497 10.962 15.7498C10.9887 15.7498 11.0147 15.7498 11.0414 15.7498C11.2018 15.7387 11.3579 15.6932 11.4991 15.6164C11.6403 15.5396 11.7634 15.4333 11.8599 15.3048C13.2408 13.4696 13.1079 11.9776 12.7873 11.086L16.5469 7.31233C16.6513 7.20781 16.7342 7.08375 16.7907 6.94721C16.8472 6.81068 16.8762 6.66436 16.8761 6.5166C16.8761 6.36884 16.8469 6.22254 16.7903 6.08606C16.7337 5.94957 16.6507 5.82558 16.5462 5.72116ZM15.7503 6.5171L11.7235 10.5573C11.6403 10.6407 11.5855 10.7482 11.5667 10.8645C11.5479 10.9808 11.5661 11.1001 11.6187 11.2055C12.2839 12.5365 11.4921 13.9189 10.962 14.6241L3.37526 7.03671C4.22463 6.35186 5.03745 6.17116 5.65901 6.17116C6.05341 6.16577 6.44456 6.24314 6.80721 6.39827C6.91301 6.45122 7.03282 6.46946 7.14958 6.4504C7.26635 6.43134 7.37413 6.37594 7.4576 6.2921L11.4837 2.24983L15.7503 6.51639V6.5171Z" fill="#374151"/>
</svg>
