<svg width="17" height="17" viewBox="0 0 17 17" fill="none" xmlns="http://www.w3.org/2000/svg">
<rect x="0.5" y="0.5" width="16" height="16" rx="8" fill="white"/>
<rect x="0.5" y="0.5" width="16" height="16" rx="8" stroke="#5C5C5C"/>
<path d="M8.5 7.70313C9.3802 7.70313 10.0938 6.98958 10.0938 6.10938C10.0938 5.22917 9.3802 4.51562 8.5 4.51562C7.6198 4.51562 6.90625 5.22917 6.90625 6.10938C6.90625 6.98958 7.6198 7.70313 8.5 7.70313Z" stroke="#222222" stroke-width="0.6375"/>
<path d="M11.6875 10.6914C11.6875 11.6815 11.6875 12.4844 8.5 12.4844C5.3125 12.4844 5.3125 11.6815 5.3125 10.6914C5.3125 9.70129 6.7397 8.89844 8.5 8.89844C10.2603 8.89844 11.6875 9.70129 11.6875 10.6914Z" stroke="#222222" stroke-width="0.6375"/>
</svg>
