<svg width="16" height="16" viewBox="0 0 16 16" fill="none" xmlns="http://www.w3.org/2000/svg">
<path d="M8.002 14C7.17267 14 6.39267 13.8427 5.662 13.528C4.93178 13.2129 4.29644 12.7853 3.756 12.2453C3.21556 11.7053 2.78778 11.0707 2.47267 10.3413C2.15756 9.612 2 8.83222 2 8.002C2 7.17178 2.15756 6.39178 2.47267 5.662C2.78778 4.93178 3.21533 4.29644 3.75533 3.756C4.29533 3.21556 4.93022 2.78778 5.66 2.47267C6.38978 2.15756 7.16978 2 8 2C8.44356 2 8.87467 2.04511 9.29333 2.13533C9.71244 2.22556 10.1102 2.35956 10.4867 2.53733V3.28C10.1151 3.08356 9.72111 2.932 9.30467 2.82533C8.88778 2.71956 8.45289 2.66667 8 2.66667C6.52222 2.66667 5.26378 3.18622 4.22467 4.22533C3.18556 5.26444 2.66622 6.52267 2.66667 8C2.66711 9.47733 3.18667 10.7358 4.22533 11.7753C5.264 12.8149 6.52222 13.3342 8 13.3333C9.47778 13.3324 10.7362 12.8131 11.7753 11.7753C12.8144 10.7376 13.3338 9.47911 13.3333 8C13.3333 7.67867 13.3058 7.36622 13.2507 7.06267C13.1956 6.75911 13.1156 6.46467 13.0107 6.17933H13.726C13.8171 6.46733 13.8856 6.76133 13.9313 7.06133C13.9771 7.36133 14 7.67422 14 8C14 8.83022 13.8427 9.61022 13.528 10.34C13.2133 11.0698 12.786 11.7049 12.246 12.2453C11.706 12.7858 11.0711 13.2131 10.3413 13.5273C9.61156 13.8416 8.83178 13.9991 8.002 14ZM13.6667 4.33333V3H12.3333V2.33333H13.6667V1H14.3333V2.33333H15.6667V3H14.3333V4.33333H13.6667ZM10.208 7.07733C10.4156 7.07733 10.5909 7.00467 10.734 6.85933C10.8771 6.714 10.9487 6.53778 10.9487 6.33067C10.9487 6.12356 10.8762 5.948 10.7313 5.804C10.586 5.66133 10.4096 5.59 10.202 5.59C9.99444 5.59 9.81911 5.66245 9.676 5.80733C9.53289 5.95222 9.46133 6.12844 9.46133 6.336C9.46133 6.54356 9.534 6.71911 9.67933 6.86267C9.82422 7.00578 10.0004 7.07733 10.208 7.07733ZM5.798 7.07733C6.00511 7.07733 6.18022 7.00467 6.32333 6.85933C6.46689 6.714 6.53867 6.53778 6.53867 6.33067C6.53867 6.12311 6.466 5.94756 6.32067 5.804C6.17533 5.66133 5.99911 5.59 5.792 5.59C5.58444 5.59 5.40911 5.66245 5.266 5.80733C5.12289 5.95267 5.05133 6.12889 5.05133 6.336C5.05133 6.54356 5.12378 6.71911 5.26867 6.86267C5.414 7.00578 5.59044 7.07733 5.798 7.07733ZM8 11.256C8.64844 11.256 9.23733 11.0807 9.76667 10.73C10.2956 10.3789 10.6947 9.91333 10.964 9.33333H5.036C5.30489 9.91378 5.704 10.3793 6.23333 10.73C6.76267 11.0807 7.35156 11.2556 8 11.256Z" fill="#5C5C5C" stroke="#5C5C5C" stroke-width="0.3"/>
</svg>
