<svg width="17" height="16" viewBox="0 0 17 16" fill="none" xmlns="http://www.w3.org/2000/svg">
<path d="M8.07707 1.65414C6.70784 1.65414 5.36937 2.06016 4.2309 2.82087C3.09243 3.58157 2.2051 4.66278 1.68112 5.92778C1.15714 7.19278 1.02004 8.58475 1.28716 9.92767C1.55429 11.2706 2.21363 12.5041 3.18182 13.4723C4.15001 14.4405 5.38356 15.0999 6.72647 15.367C8.06939 15.6341 9.46136 15.497 10.7264 14.973C11.9914 14.449 13.0726 13.5617 13.8333 12.4232C14.594 11.2848 15 9.9463 15 8.57707C14.9979 6.74164 14.2678 4.98199 12.97 3.68414C11.6722 2.38629 9.9125 1.65624 8.07707 1.65414ZM8.07707 14.3462C6.93605 14.3462 5.82065 14.0078 4.87193 13.3739C3.9232 12.74 3.18376 11.839 2.74711 10.7848C2.31046 9.73065 2.19621 8.57067 2.41881 7.45157C2.64142 6.33248 3.19087 5.30452 3.9977 4.4977C4.80452 3.69087 5.83248 3.14142 6.95157 2.91882C8.07067 2.69621 9.23064 2.81046 10.2848 3.24711C11.339 3.68376 12.24 4.4232 12.8739 5.37193C13.5078 6.32065 13.8462 7.43605 13.8462 8.57707C13.8445 10.1066 13.2361 11.573 12.1545 12.6545C11.073 13.7361 9.6066 14.3445 8.07707 14.3462ZM3.29304 1.4854L0.985396 3.79304C0.877144 3.90129 0.730323 3.96211 0.577231 3.96211C0.42414 3.96211 0.277319 3.90129 0.169067 3.79304C0.0608153 3.68479 1.61308e-09 3.53797 0 3.38487C-1.61308e-09 3.23178 0.0608153 3.08496 0.169067 2.97671L2.47671 0.669067C2.58496 0.560815 2.73178 0.5 2.88487 0.5C3.03797 0.5 3.18479 0.560815 3.29304 0.669067C3.40129 0.777319 3.46211 0.92414 3.46211 1.07723C3.46211 1.23032 3.40129 1.37714 3.29304 1.4854ZM15.9851 3.79304C15.9315 3.84668 15.8679 3.88923 15.7978 3.91826C15.7278 3.94729 15.6527 3.96224 15.5769 3.96224C15.5011 3.96224 15.426 3.94729 15.356 3.91826C15.2859 3.88923 15.2223 3.84668 15.1687 3.79304L12.8611 1.4854C12.7528 1.37714 12.692 1.23032 12.692 1.07723C12.692 0.92414 12.7528 0.777319 12.8611 0.669067C12.9694 0.560815 13.1162 0.5 13.2693 0.5C13.4224 0.5 13.5692 0.560815 13.6774 0.669067L15.9851 2.97671C16.0387 3.03029 16.0813 3.09392 16.1103 3.16395C16.1393 3.23399 16.1543 3.30906 16.1543 3.38487C16.1543 3.46069 16.1393 3.53576 16.1103 3.6058C16.0813 3.67583 16.0387 3.73946 15.9851 3.79304ZM12.1154 8.00016C12.2685 8.00016 12.4152 8.06094 12.5234 8.16913C12.6316 8.27732 12.6924 8.42406 12.6924 8.57707C12.6924 8.73008 12.6316 8.87682 12.5234 8.98501C12.4152 9.0932 12.2685 9.15398 12.1154 9.15398H8.07707C7.92406 9.15398 7.77732 9.0932 7.66913 8.98501C7.56094 8.87682 7.50016 8.73008 7.50016 8.57707V4.5387C7.50016 4.38569 7.56094 4.23895 7.66913 4.13076C7.77732 4.02257 7.92406 3.96178 8.07707 3.96178C8.23008 3.96178 8.37682 4.02257 8.48501 4.13076C8.5932 4.23895 8.65398 4.38569 8.65398 4.5387V8.00016H12.1154Z" fill="#222222"/>
</svg>
