<svg width="18" height="18" viewBox="0 0 18 18" fill="none" xmlns="http://www.w3.org/2000/svg">
<path d="M16.3081 3.29738V6.86928C16.3081 7.02717 16.2454 7.17859 16.1337 7.29023C16.0221 7.40187 15.8707 7.4646 15.7128 7.4646H12.1409C11.983 7.4646 11.8316 7.40187 11.7199 7.29023C11.6083 7.17859 11.5456 7.02717 11.5456 6.86928C11.5456 6.71139 11.6083 6.55997 11.7199 6.44833C11.8316 6.33668 11.983 6.27396 12.1409 6.27396H14.2758L13.1872 5.18528C12.0807 4.07383 10.5785 3.44677 9.01027 3.44175H8.97678C7.42164 3.4381 5.92758 4.04679 4.81775 5.13616C4.70406 5.2423 4.55335 5.29972 4.39786 5.29615C4.24237 5.29259 4.09446 5.22831 3.98575 5.11708C3.87705 5.00585 3.81619 4.85649 3.8162 4.70096C3.81621 4.54543 3.87708 4.39608 3.9858 4.28486C5.33086 2.97025 7.14009 2.23912 9.02086 2.25012C10.9016 2.26113 12.7022 3.01339 14.0318 4.34365L15.1175 5.43233V3.29738C15.1175 3.13949 15.1802 2.98807 15.2918 2.87643C15.4035 2.76479 15.5549 2.70206 15.7128 2.70206C15.8707 2.70206 16.0221 2.76479 16.1337 2.87643C16.2454 2.98807 16.3081 3.13949 16.3081 3.29738ZM13.5109 13.3649C12.3901 14.4597 10.8828 15.0686 9.31607 15.0594C7.74931 15.0502 6.24933 14.4237 5.14145 13.3158L4.05277 12.2271H6.18772C6.34561 12.2271 6.49703 12.1644 6.60867 12.0528C6.72032 11.9411 6.78304 11.7897 6.78304 11.6318C6.78304 11.4739 6.72032 11.3225 6.60867 11.2109C6.49703 11.0992 6.34561 11.0365 6.18772 11.0365H2.61582C2.45794 11.0365 2.30652 11.0992 2.19487 11.2109C2.08323 11.3225 2.02051 11.4739 2.02051 11.6318V15.2037C2.02051 15.3616 2.08323 15.513 2.19487 15.6247C2.30652 15.7363 2.45794 15.799 2.61582 15.799C2.77371 15.799 2.92513 15.7363 3.03678 15.6247C3.14842 15.513 3.21114 15.3616 3.21114 15.2037V13.0688L4.29983 14.1574C5.62754 15.4918 7.43074 16.2445 9.31313 16.25H9.35257C11.2189 16.2548 13.0121 15.5241 14.3436 14.2162C14.4523 14.105 14.5131 13.9557 14.5132 13.8001C14.5132 13.6446 14.4523 13.4952 14.3436 13.384C14.2349 13.2728 14.087 13.2085 13.9315 13.2049C13.776 13.2014 13.6253 13.2588 13.5116 13.3649H13.5109Z" fill="#374151"/>
</svg>
