<svg width="16" height="16" viewBox="0 0 16 16" fill="none" xmlns="http://www.w3.org/2000/svg">
<path d="M8.00012 5.00031C7.40677 5.00031 6.82676 5.17626 6.33341 5.50591C5.84006 5.83555 5.45554 6.30409 5.22848 6.85226C5.00142 7.40044 4.94201 8.00364 5.05776 8.58558C5.17352 9.16753 5.45924 9.70208 5.8788 10.1216C6.29836 10.5412 6.8329 10.8269 7.41485 10.9427C7.99679 11.0584 8.59999 10.999 9.14817 10.772C9.69635 10.5449 10.1649 10.1604 10.4945 9.66702C10.8242 9.17368 11.0001 8.59366 11.0001 8.00031C10.9993 7.20492 10.683 6.44234 10.1205 5.87991C9.5581 5.31748 8.79551 5.00114 8.00012 5.00031ZM8.00012 10.0003C7.60456 10.0003 7.21788 9.88302 6.88898 9.66325C6.56008 9.44349 6.30373 9.13113 6.15236 8.76568C6.00098 8.40023 5.96138 7.9981 6.03855 7.61013C6.11572 7.22217 6.3062 6.86581 6.58591 6.5861C6.86561 6.3064 7.22198 6.11591 7.60994 6.03874C7.9979 5.96157 8.40003 6.00118 8.76549 6.15255C9.13094 6.30393 9.4433 6.56028 9.66306 6.88917C9.88282 7.21807 10.0001 7.60475 10.0001 8.00031C10.0001 8.53075 9.7894 9.03945 9.41433 9.41453C9.03926 9.7896 8.53055 10.0003 8.00012 10.0003ZM14.8714 6.70094C14.8574 6.63053 14.8285 6.56394 14.7866 6.50571C14.7446 6.44747 14.6906 6.39895 14.6282 6.36344L12.7639 5.30094L12.7564 3.19969C12.7561 3.12732 12.7402 3.05587 12.7097 2.99026C12.6791 2.92465 12.6347 2.86646 12.5795 2.81969C11.9032 2.24762 11.1244 1.80923 10.2845 1.52781C10.2184 1.50543 10.1483 1.49714 10.0787 1.50349C10.0092 1.50984 9.94174 1.53069 9.88074 1.56469L8.00012 2.61594L6.11762 1.56281C6.05659 1.52862 5.98906 1.50762 5.91941 1.50116C5.84975 1.4947 5.77952 1.50293 5.71324 1.52531C4.87396 1.80879 4.09605 2.24885 3.42074 2.82219C3.3656 2.86889 3.32123 2.92698 3.2907 2.99248C3.26016 3.05797 3.24419 3.1293 3.24387 3.20156L3.23449 5.30469L1.37012 6.36719C1.30774 6.4027 1.25375 6.45122 1.21179 6.50946C1.16984 6.56769 1.14092 6.63428 1.12699 6.70469C0.956367 7.56212 0.956367 8.44476 1.12699 9.30219C1.14092 9.3726 1.16984 9.43918 1.21179 9.49742C1.25375 9.55566 1.30774 9.60418 1.37012 9.63969L3.23449 10.7022L3.24199 12.8034C3.24222 12.8758 3.25815 12.9473 3.28869 13.0129C3.31923 13.0785 3.36364 13.1367 3.41887 13.1834C4.09516 13.7555 4.87397 14.1939 5.71387 14.4753C5.78001 14.4977 5.85011 14.506 5.91965 14.4996C5.98919 14.4933 6.05663 14.4724 6.11762 14.4384L8.00012 13.3847L9.88262 14.4378C9.95712 14.4793 10.0411 14.5009 10.1264 14.5003C10.181 14.5003 10.2352 14.4914 10.287 14.4741C11.1262 14.191 11.9041 13.7513 12.5795 13.1784C12.6346 13.1317 12.679 13.0736 12.7095 13.0082C12.7401 12.9427 12.7561 12.8713 12.7564 12.7991L12.7657 10.6959L14.6301 9.63344C14.6925 9.59793 14.7465 9.54941 14.7884 9.49117C14.8304 9.43293 14.8593 9.36635 14.8732 9.29594C15.0429 8.4392 15.0423 7.55743 14.8714 6.70094ZM13.9339 8.88281L12.1482 9.89844C12.07 9.94292 12.0052 10.0077 11.9607 10.0859C11.9245 10.1484 11.8864 10.2147 11.8476 10.2772C11.798 10.356 11.7716 10.4472 11.7714 10.5403L11.762 12.5559C11.282 12.9328 10.7473 13.2342 10.1764 13.4497L8.37512 12.4459C8.30034 12.4046 8.2162 12.383 8.13074 12.3834H8.11887C8.04324 12.3834 7.96699 12.3834 7.89137 12.3834C7.80192 12.3812 7.71349 12.4028 7.63512 12.4459L5.83262 13.4522C5.26044 13.2384 4.72426 12.9385 4.24262 12.5628L4.23574 10.5503C4.23544 10.457 4.20902 10.3656 4.15949 10.2866C4.12074 10.2241 4.08262 10.1616 4.04699 10.0953C4.00282 10.0159 3.93805 9.9498 3.85949 9.90406L2.07199 8.88594C1.97949 8.30082 1.97949 7.70481 2.07199 7.11969L3.85449 6.10219C3.93273 6.0577 3.99751 5.99292 4.04199 5.91469C4.07824 5.85219 4.11637 5.78594 4.15512 5.72344C4.20472 5.64462 4.23114 5.55344 4.23137 5.46031L4.24074 3.44469C4.7207 3.06778 5.25541 2.76639 5.82637 2.55094L7.62512 3.55469C7.7034 3.59808 7.7919 3.61967 7.88137 3.61719C7.95699 3.61719 8.03324 3.61719 8.10887 3.61719C8.19831 3.61942 8.28675 3.59785 8.36512 3.55469L10.1676 2.54844C10.7398 2.76224 11.276 3.06215 11.7576 3.43781L11.7645 5.45031C11.7648 5.54362 11.7912 5.63498 11.8407 5.71406C11.8795 5.77656 11.9176 5.83906 11.9532 5.90531C11.9974 5.98476 12.0622 6.05083 12.1407 6.09656L13.9282 7.11469C14.022 7.70025 14.023 8.29692 13.9314 8.88281H13.9339Z" fill="#5C5C5C"/>
</svg>
