<svg width="18" height="18" viewBox="0 0 18 18" fill="none" xmlns="http://www.w3.org/2000/svg">
<path fill-rule="evenodd" clip-rule="evenodd" d="M13.8533 5.73529H17.0886L15.4709 2.5L13.8533 5.73529ZM4.93194 7.35295V6.59468C5.55332 6.0723 6.01777 5.66368 6.32527 5.36881C6.65386 5.05287 6.87502 4.81168 6.98876 4.64527C7.1046 4.47678 7.16252 4.31144 7.16252 4.14924C7.16252 3.98285 7.09301 3.84805 6.95399 3.74482C6.8171 3.63952 6.63806 3.58687 6.41687 3.58687C6.10092 3.58687 5.70283 3.68902 5.22259 3.89333L4.96986 3.10977C5.50065 2.90124 6.02406 2.79698 6.54009 2.79698C7.04983 2.79698 7.44582 2.90651 7.72808 3.12558C8.02507 3.35518 8.17356 3.68166 8.17356 4.105C8.17356 4.37462 8.11353 4.62001 7.99347 4.84117C7.87551 5.06233 7.65961 5.32984 7.34576 5.64369C7.08668 5.90276 6.75284 6.20923 6.34423 6.56309H8.21148V7.35295H4.93194ZM9.35105 7.17919L9.56905 6.39248C9.93555 6.56309 10.3263 6.6484 10.7412 6.6484C11.0845 6.6484 11.3278 6.57678 11.4711 6.43354C11.5827 6.32612 11.6385 6.19131 11.6385 6.02912C11.6385 5.79532 11.53 5.62577 11.3131 5.52047C11.153 5.44252 10.9013 5.40354 10.558 5.40354C10.4295 5.40354 10.262 5.40776 10.0556 5.41621V4.68004C10.1546 4.68426 10.2525 4.68637 10.3494 4.68637C10.8276 4.68637 11.1562 4.63475 11.3352 4.53153C11.51 4.43252 11.5974 4.29457 11.5974 4.11766C11.5974 3.94705 11.53 3.81645 11.3952 3.72586C11.2625 3.6332 11.0709 3.58687 10.8202 3.58687C10.4958 3.58687 10.1241 3.66796 9.7049 3.83013L9.49323 3.0529C9.96292 2.88228 10.4537 2.79698 10.9655 2.79698C11.4542 2.79698 11.8397 2.88755 12.1219 3.06871C12.4442 3.27723 12.6053 3.59845 12.6053 4.03236C12.6053 4.32722 12.5295 4.55891 12.3778 4.72743C12.2262 4.89382 11.9934 5.00124 11.6796 5.04969C11.9913 5.09602 12.2251 5.19502 12.381 5.34667C12.56 5.5236 12.6495 5.76583 12.6495 6.07336C12.6495 6.3514 12.5758 6.59888 12.4284 6.81583C12.2851 7.02857 12.085 7.1855 11.8281 7.2866C11.5711 7.3877 11.2436 7.43826 10.8455 7.43826C10.2957 7.43826 9.7976 7.3519 9.35105 7.17919ZM2.6972 3.92491V7.35295H3.67348V2.87599H2.80779L1.37655 3.71638L1.83152 4.46518L2.6972 3.92491ZM16.8703 9.3455L13.1442 13.0951L12.6173 13.6253L12.0904 13.0951L10.009 11.0006L5.31946 15.7197L4.79254 16.25L4.26557 15.7197L0.912109 12.3452L1.966 11.2846L4.79254 14.129L9.48208 9.40984L10.009 8.87958L10.536 9.40984L12.6173 11.5043L15.8164 8.28498L16.8703 9.3455Z" fill="#222222"/>
</svg>
