<svg width="19" height="18" viewBox="0 0 19 18" fill="none" xmlns="http://www.w3.org/2000/svg">
<path d="M10.3449 2.91071C8.98872 2.91071 7.66297 3.31288 6.53531 4.06635C5.40766 4.81982 4.52877 5.89076 4.00976 7.14374C3.49076 8.39672 3.35497 9.77546 3.61955 11.1056C3.88414 12.4358 4.53722 13.6576 5.49621 14.6166C6.45519 15.5756 7.67702 16.2287 9.00718 16.4932C10.3373 16.7578 11.7161 16.622 12.9691 16.103C14.222 15.584 15.293 14.7051 16.0464 13.5775C16.7999 12.4498 17.2021 11.1241 17.2021 9.76786C17.2 7.94987 16.4769 6.20693 15.1914 4.92142C13.9059 3.63591 12.1629 2.91279 10.3449 2.91071ZM10.3449 15.4821C9.21476 15.4821 8.10996 15.147 7.17025 14.5191C6.23054 13.8912 5.49813 12.9988 5.06563 11.9546C4.63313 10.9105 4.51996 9.76152 4.74045 8.65305C4.96094 7.54459 5.50517 6.5264 6.30433 5.72725C7.10349 4.92809 8.12167 4.38386 9.23014 4.16337C10.3386 3.94288 11.4875 4.05604 12.5317 4.48854C13.5758 4.92105 14.4683 5.65346 15.0962 6.59317C15.7241 7.53288 16.0592 8.63768 16.0592 9.76786C16.0575 11.2829 15.4549 12.7353 14.3837 13.8066C13.3124 14.8779 11.8599 15.4804 10.3449 15.4821ZM13.6064 6.50643C13.6595 6.5595 13.7016 6.62252 13.7304 6.69189C13.7592 6.76126 13.774 6.83562 13.774 6.91071C13.774 6.98581 13.7592 7.06017 13.7304 7.12954C13.7016 7.19891 13.6595 7.26193 13.6064 7.315L10.7492 10.1721C10.6961 10.2252 10.6331 10.2673 10.5637 10.2961C10.4944 10.3248 10.42 10.3396 10.3449 10.3396C10.2699 10.3396 10.1955 10.3248 10.1261 10.2961C10.0568 10.2673 9.99374 10.2252 9.94065 10.1721C9.88756 10.1191 9.84545 10.056 9.81671 9.98665C9.78798 9.91729 9.77319 9.84294 9.77319 9.76786C9.77319 9.69277 9.78798 9.61843 9.81671 9.54906C9.84545 9.47969 9.88756 9.41666 9.94065 9.36357L12.7978 6.50643C12.8509 6.4533 12.9139 6.41115 12.9833 6.38239C13.0526 6.35364 13.127 6.33884 13.2021 6.33884C13.2772 6.33884 13.3515 6.35364 13.4209 6.38239C13.4903 6.41115 13.5533 6.4533 13.6064 6.50643ZM8.05922 1.19643C8.05922 1.04488 8.11943 0.899531 8.22659 0.792368C8.33376 0.685204 8.4791 0.625 8.63065 0.625H12.0592C12.2108 0.625 12.3561 0.685204 12.4633 0.792368C12.5704 0.899531 12.6307 1.04488 12.6307 1.19643C12.6307 1.34798 12.5704 1.49333 12.4633 1.60049C12.3561 1.70765 12.2108 1.76786 12.0592 1.76786H8.63065C8.4791 1.76786 8.33376 1.70765 8.22659 1.60049C8.11943 1.49333 8.05922 1.34798 8.05922 1.19643Z" fill="#374151"/>
</svg>
