<svg width="14" height="13" viewBox="0 0 14 13" fill="none" xmlns="http://www.w3.org/2000/svg">
<path d="M1.525 0.738281C1.525 0.462139 1.30114 0.238281 1.025 0.238281C0.748858 0.238281 0.525 0.462139 0.525 0.738281H1.525ZM7.85833 10.2383C7.85833 11.711 9.05224 12.9049 10.525 12.9049C11.9978 12.9049 13.1917 11.711 13.1917 10.2383C13.1917 8.76552 11.9978 7.57161 10.525 7.57161C9.05224 7.57161 7.85833 8.76552 7.85833 10.2383ZM1.025 0.738281H0.525C0.525 3.33423 0.462896 5.27518 0.534787 6.67406C0.605782 8.05549 0.808314 9.09669 1.48746 9.77583C2.1666 10.455 3.20779 10.6575 4.58922 10.7285C5.9881 10.8004 7.92906 10.7383 10.525 10.7383V10.2383V9.73828C7.87562 9.73828 6.00642 9.80001 4.64055 9.72981C3.25723 9.65872 2.57909 9.45325 2.19456 9.06872C1.81003 8.68419 1.60456 8.00605 1.53347 6.62274C1.46327 5.25687 1.525 3.38766 1.525 0.738281H1.025Z" fill="#7AC74F"/>
</svg>
