<svg width="18" height="18" viewBox="0 0 18 18" fill="none" xmlns="http://www.w3.org/2000/svg">
<path d="M4.875 5.625C4.875 5.82391 4.95402 6.01468 5.09467 6.15533C5.23532 6.29598 5.42609 6.375 5.625 6.375C5.82391 6.375 6.01468 6.29598 6.15533 6.15533C6.29598 6.01468 6.375 5.82391 6.375 5.625C6.375 5.42609 6.29598 5.23532 6.15533 5.09467C6.01468 4.95402 5.82391 4.875 5.625 4.875C5.42609 4.875 5.23532 4.95402 5.09467 5.09467C4.95402 5.23532 4.875 5.42609 4.875 5.625Z" stroke="#6B7280" stroke-width="1.5" stroke-linecap="round" stroke-linejoin="round"/>
<path d="M8.40204 1.92285C8.93823 1.92297 9.45262 2.13644 9.83173 2.51562L15.3991 8.08301C15.8338 8.51773 16.0788 9.10792 16.0788 9.72266C16.0788 10.3373 15.8337 10.9266 15.3991 11.3613L11.361 15.3994C10.9263 15.834 10.337 16.0791 9.72235 16.0791C9.10761 16.0791 8.51742 15.8341 8.0827 15.3994L2.51532 9.83203C2.13614 9.45292 1.92266 8.93854 1.92255 8.40234V4.66699C1.92266 3.93935 2.21173 3.24109 2.72626 2.72656C3.24079 2.21203 3.93904 1.92297 4.66669 1.92285H8.40204Z" stroke="#6B7280" stroke-width="1.15544" stroke-linecap="round" stroke-linejoin="round"/>
</svg>
