<svg width="16" height="16" viewBox="0 0 16 16" fill="none" xmlns="http://www.w3.org/2000/svg">
<path d="M2 2H6C6.26522 2 6.51957 2.10536 6.70711 2.29289C6.89464 2.48043 7 2.73478 7 3V7C7 7.26522 6.89464 7.51957 6.70711 7.70711C6.51957 7.89464 6.26522 8 6 8H2C1.73478 8 1.48043 7.89464 1.29289 7.70711C1.10536 7.51957 1 7.26522 1 7V3C1 2.73478 1.10536 2.48043 1.29289 2.29289C1.48043 2.10536 1.73478 2 2 2ZM6.655 10.595C6.79545 10.7356 6.87434 10.9262 6.87434 11.125C6.87434 11.3238 6.79545 11.5144 6.655 11.655L4.03 14.28C3.88937 14.4205 3.69875 14.4993 3.5 14.4993C3.30125 14.4993 3.11063 14.4205 2.97 14.28L1.47 12.78C1.37128 12.6883 1.2991 12.5717 1.26109 12.4425C1.22308 12.3132 1.22063 12.1761 1.254 12.0456C1.28737 11.9151 1.35533 11.796 1.45072 11.7008C1.54611 11.6057 1.66539 11.538 1.796 11.505C1.92638 11.4717 2.06332 11.4741 2.19247 11.5119C2.32161 11.5497 2.43819 11.6216 2.53 11.72L3.5 12.69L5.595 10.595C5.73563 10.4545 5.92625 10.3757 6.125 10.3757C6.32375 10.3757 6.51437 10.4545 6.655 10.595ZM9.75 2.5H15.25C15.4489 2.5 15.6397 2.57902 15.7803 2.71967C15.921 2.86032 16 3.05109 16 3.25C16 3.44891 15.921 3.63968 15.7803 3.78033C15.6397 3.92098 15.4489 4 15.25 4H9.75C9.55109 4 9.36032 3.92098 9.21967 3.78033C9.07902 3.63968 9 3.44891 9 3.25C9 3.05109 9.07902 2.86032 9.21967 2.71967C9.36032 2.57902 9.55109 2.5 9.75 2.5ZM9.75 7.5H15.25C15.4489 7.5 15.6397 7.57902 15.7803 7.71967C15.921 7.86032 16 8.05109 16 8.25C16 8.44891 15.921 8.63968 15.7803 8.78033C15.6397 8.92098 15.4489 9 15.25 9H9.75C9.55109 9 9.36032 8.92098 9.21967 8.78033C9.07902 8.63968 9 8.44891 9 8.25C9 8.05109 9.07902 7.86032 9.21967 7.71967C9.36032 7.57902 9.55109 7.5 9.75 7.5ZM9.75 12.5H15.25C15.4489 12.5 15.6397 12.579 15.7803 12.7197C15.921 12.8603 16 13.0511 16 13.25C16 13.4489 15.921 13.6397 15.7803 13.7803C15.6397 13.921 15.4489 14 15.25 14H9.75C9.55109 14 9.36032 13.921 9.21967 13.7803C9.07902 13.6397 9 13.4489 9 13.25C9 13.0511 9.07902 12.8603 9.21967 12.7197C9.36032 12.579 9.55109 12.5 9.75 12.5ZM2.5 3.5V6.5H5.5V3.5H2.5Z" fill="#222222"/>
</svg>
