<svg width="22" height="22" viewBox="0 0 22 22" fill="none" xmlns="http://www.w3.org/2000/svg">
<path d="M20.9344 12.7877C20.8802 12.8283 20.8186 12.8578 20.753 12.8746C20.6874 12.8915 20.6191 12.8952 20.5521 12.8856C20.485 12.876 20.4206 12.8533 20.3623 12.8188C20.304 12.7843 20.2531 12.7387 20.2125 12.6845C19.7822 12.1061 19.2221 11.6368 18.5773 11.3144C17.9324 10.9919 17.2209 10.8255 16.5 10.8283C16.3632 10.8283 16.2321 10.774 16.1354 10.6773C16.0387 10.5806 15.9844 10.4494 15.9844 10.3127C15.9844 10.1759 16.0387 10.0448 16.1354 9.94805C16.2321 9.85136 16.3632 9.79703 16.5 9.79703C16.9179 9.79694 17.3274 9.67967 17.6819 9.45852C18.0365 9.23738 18.322 8.92124 18.5059 8.546C18.6898 8.17076 18.7648 7.75147 18.7223 7.33575C18.6799 6.92002 18.5217 6.52453 18.2658 6.1942C18.0099 5.86386 17.6664 5.61191 17.2745 5.46698C16.8825 5.32204 16.4578 5.28992 16.0485 5.37427C15.6392 5.45862 15.2618 5.65605 14.9591 5.94415C14.6564 6.23224 14.4406 6.59945 14.3361 7.00406C14.3019 7.13648 14.2165 7.2499 14.0987 7.31936C13.9809 7.38883 13.8403 7.40864 13.7079 7.37445C13.5755 7.34027 13.4621 7.25487 13.3926 7.13706C13.3231 7.01925 13.3033 6.87867 13.3375 6.74625C13.4671 6.24217 13.7153 5.77637 14.0615 5.38767C14.4076 4.99897 14.8416 4.69864 15.3274 4.51171C15.8132 4.32478 16.3365 4.25667 16.854 4.31304C17.3714 4.36942 17.8678 4.54865 18.3019 4.8358C18.736 5.12296 19.0952 5.50971 19.3495 5.96383C19.6038 6.41794 19.7459 6.92627 19.7639 7.44644C19.7819 7.96661 19.6754 8.48354 19.4531 8.95417C19.2308 9.42479 18.8992 9.83546 18.486 10.152C19.5028 10.5314 20.3886 11.1958 21.0375 12.0658C21.0781 12.12 21.1077 12.1816 21.1245 12.2472C21.1413 12.3128 21.145 12.381 21.1354 12.4481C21.1259 12.5151 21.1032 12.5796 21.0687 12.6379C21.0342 12.6961 20.9885 12.747 20.9344 12.7877ZM16.2585 18.3048C16.2924 18.3635 16.3145 18.4282 16.3234 18.4953C16.3323 18.5625 16.3279 18.6307 16.3104 18.6962C16.2929 18.7616 16.2627 18.823 16.2215 18.8767C16.1803 18.9305 16.129 18.9756 16.0703 19.0095C15.9921 19.0554 15.9031 19.0794 15.8125 19.0791C15.7219 19.0792 15.6329 19.0554 15.5545 19.0101C15.4761 18.9649 15.4109 18.8998 15.3656 18.8213C14.9174 18.062 14.2789 17.4326 13.5132 16.9954C12.7474 16.5582 11.8809 16.3282 10.9991 16.3282C10.1174 16.3282 9.25083 16.5582 8.48509 16.9954C7.71934 17.4326 7.08085 18.062 6.63266 18.8213C6.60042 18.8829 6.55606 18.9374 6.50223 18.9814C6.4484 19.0255 6.38622 19.0582 6.31943 19.0775C6.25265 19.0969 6.18263 19.1026 6.11359 19.0942C6.04456 19.0858 5.97793 19.0635 5.91773 19.0287C5.85752 18.9939 5.80498 18.9473 5.76325 18.8917C5.72153 18.836 5.69149 18.7725 5.67495 18.705C5.6584 18.6375 5.65569 18.5673 5.66698 18.4986C5.67827 18.43 5.70332 18.3644 5.74063 18.3057C6.44294 17.099 7.54258 16.1737 8.85156 15.688C8.13652 15.2238 7.59073 14.5408 7.2956 13.741C7.00047 12.9412 6.97182 12.0673 7.21391 11.2499C7.45601 10.4325 7.95589 9.71519 8.63898 9.20508C9.32206 8.69497 10.1518 8.41936 11.0043 8.41936C11.8568 8.41936 12.6865 8.69497 13.3696 9.20508C14.0527 9.71519 14.5526 10.4325 14.7947 11.2499C15.0368 12.0673 15.0081 12.9412 14.713 13.741C14.4179 14.5408 13.8721 15.2238 13.157 15.688C14.4624 16.1754 15.5584 17.1002 16.2585 18.3048ZM11 15.297C11.5779 15.297 12.1428 15.1257 12.6233 14.8046C13.1038 14.4835 13.4783 14.0272 13.6995 13.4933C13.9206 12.9594 13.9785 12.3719 13.8657 11.8051C13.753 11.2383 13.4747 10.7177 13.0661 10.3091C12.6574 9.90045 12.1368 9.62217 11.57 9.50942C11.0032 9.39668 10.4157 9.45455 9.88185 9.6757C9.34794 9.89685 8.89161 10.2713 8.57055 10.7518C8.24949 11.2323 8.07812 11.7973 8.07812 12.3752C8.07812 13.1501 8.38596 13.8933 8.93392 14.4412C9.48188 14.9892 10.2251 15.297 11 15.297ZM6.01562 10.3127C6.01562 10.1759 5.9613 10.0448 5.8646 9.94805C5.7679 9.85136 5.63675 9.79703 5.5 9.79703C5.08216 9.7969 4.67274 9.67961 4.31821 9.45848C3.96369 9.23735 3.67827 8.92124 3.49437 8.54605C3.31047 8.17086 3.23546 7.75162 3.27786 7.33594C3.32026 6.92026 3.47836 6.5248 3.73422 6.19446C3.99008 5.86412 4.33344 5.61214 4.7253 5.46714C5.11717 5.32214 5.54185 5.28992 5.95111 5.37415C6.36037 5.45837 6.73781 5.65567 7.04057 5.94363C7.34333 6.23159 7.55929 6.59868 7.66391 7.0032C7.68083 7.06877 7.71051 7.13036 7.75124 7.18446C7.79197 7.23856 7.84296 7.28411 7.9013 7.3185C7.95963 7.3529 8.02417 7.37546 8.09122 7.38492C8.15828 7.39437 8.22654 7.39052 8.29211 7.37359C8.35768 7.35667 8.41927 7.32699 8.47337 7.28626C8.52747 7.24553 8.57302 7.19454 8.60741 7.1362C8.6418 7.07787 8.66437 7.01333 8.67382 6.94628C8.68328 6.87922 8.67943 6.81096 8.6625 6.74539C8.53289 6.24131 8.28467 5.77551 7.93853 5.38681C7.59239 4.99811 7.15835 4.69779 6.6726 4.51085C6.18685 4.32392 5.66345 4.25581 5.14604 4.31218C4.62862 4.36856 4.13217 4.54779 3.69807 4.83494C3.26397 5.1221 2.9048 5.50885 2.65049 5.96297C2.39617 6.41709 2.25409 6.92541 2.23608 7.44558C2.21807 7.96575 2.32465 8.48269 2.54694 8.95331C2.76923 9.42393 3.10079 9.8346 3.51398 10.1511C2.4971 10.5308 1.61123 11.1955 0.9625 12.0658C0.921872 12.12 0.892312 12.1816 0.875507 12.2472C0.858702 12.3128 0.854981 12.381 0.864557 12.4481C0.874133 12.5151 0.896819 12.5796 0.931318 12.6379C0.965817 12.6961 1.01145 12.747 1.06563 12.7877C1.1198 12.8283 1.18144 12.8578 1.24703 12.8746C1.31263 12.8915 1.38089 12.8952 1.44792 12.8856C1.51495 12.876 1.57944 12.8533 1.63771 12.8188C1.69597 12.7843 1.74687 12.7387 1.7875 12.6845C2.21779 12.1061 2.7779 11.6368 3.42273 11.3144C4.06755 10.9919 4.77907 10.8255 5.5 10.8283C5.63675 10.8283 5.7679 10.774 5.8646 10.6773C5.9613 10.5806 6.01562 10.4494 6.01562 10.3127Z" fill="#222222"/>
</svg>
