<svg width="14" height="15" viewBox="0 0 14 15" fill="none" xmlns="http://www.w3.org/2000/svg">
<path d="M2.96919 11.1562H6.15662C6.272 11.1562 6.36842 11.1175 6.44587 11.0401C6.52333 10.9626 6.56233 10.8659 6.56287 10.75C6.56342 10.6341 6.52442 10.5374 6.44587 10.4599C6.36733 10.3825 6.27092 10.3437 6.15662 10.3437H2.96919C2.85327 10.3437 2.75658 10.3825 2.67912 10.4599C2.60167 10.5374 2.56294 10.6341 2.56294 10.75C2.56294 10.8659 2.60167 10.9626 2.67912 11.0401C2.75658 11.1175 2.85327 11.1562 2.96919 11.1562ZM5.40669 7.90625H8.59412C8.7095 7.90625 8.80591 7.86752 8.88337 7.79006C8.96083 7.7126 8.99983 7.61592 9.00037 7.5C9.00092 7.38408 8.96192 7.28739 8.88337 7.20994C8.80483 7.13248 8.70842 7.09375 8.59412 7.09375H5.40669C5.29077 7.09375 5.19408 7.13248 5.11662 7.20994C5.03917 7.28739 5.00044 7.38408 5.00044 7.5C5.00044 7.61592 5.03917 7.7126 5.11662 7.79006C5.19408 7.86752 5.29077 7.90625 5.40669 7.90625ZM7.84419 4.65625H11.0316C11.147 4.65625 11.2434 4.61752 11.3209 4.54006C11.3983 4.4626 11.4373 4.36592 11.4379 4.25C11.4384 4.13408 11.3994 4.0374 11.3209 3.95994C11.2423 3.88248 11.1459 3.84375 11.0316 3.84375H7.84337C7.728 3.84375 7.63158 3.88248 7.55412 3.95994C7.47667 4.0374 7.43794 4.13408 7.43794 4.25C7.43794 4.36592 7.47667 4.4626 7.55412 4.54006C7.63158 4.61752 7.72827 4.65625 7.84419 4.65625ZM1.813 14C1.43871 14 1.12644 13.8749 0.876187 13.6246C0.625937 13.3744 0.500542 13.0618 0.5 12.687V2.313C0.5 1.93871 0.625396 1.62644 0.876187 1.37619C1.12698 1.12594 1.43925 1.00054 1.813 1H12.1878C12.5616 1 12.8738 1.1254 13.1246 1.37619C13.3754 1.62698 13.5005 1.93925 13.5 2.313V12.6878C13.5 13.0616 13.3749 13.3738 13.1246 13.6246C12.8744 13.8754 12.5618 14.0005 12.187 14H1.813ZM1.813 13.1875H12.1878C12.3124 13.1875 12.427 13.1355 12.5315 13.0315C12.636 12.9275 12.688 12.8127 12.6875 12.687V2.313C12.6875 2.18787 12.6355 2.07304 12.5315 1.9685C12.4275 1.86396 12.3127 1.81196 12.187 1.8125H1.813C1.68787 1.8125 1.57304 1.8645 1.4685 1.9685C1.36396 2.0725 1.31196 2.18733 1.3125 2.313V12.6878C1.3125 12.8124 1.3645 12.927 1.4685 13.0315C1.5725 13.136 1.68706 13.188 1.81219 13.1875" fill="#5C5C5C"/>
<path d="M1.813 13.1875H12.1878C12.3124 13.1875 12.427 13.1355 12.5315 13.0315C12.636 12.9275 12.688 12.8127 12.6875 12.687V2.313C12.6875 2.18787 12.6355 2.07304 12.5315 1.9685C12.4275 1.86396 12.3127 1.81196 12.187 1.8125H1.813C1.68787 1.8125 1.57304 1.8645 1.4685 1.9685C1.36396 2.0725 1.31196 2.18733 1.3125 2.313V12.6878C1.3125 12.8124 1.3645 12.927 1.4685 13.0315C1.5725 13.136 1.68706 13.188 1.81219 13.1875M1.3125 1.8125V13.1875M2.96919 11.1562H6.15662C6.272 11.1562 6.36842 11.1175 6.44587 11.0401C6.52333 10.9626 6.56233 10.8659 6.56287 10.75C6.56342 10.6341 6.52442 10.5374 6.44587 10.4599C6.36733 10.3825 6.27092 10.3437 6.15662 10.3437H2.96919C2.85327 10.3437 2.75658 10.3825 2.67912 10.4599C2.60167 10.5374 2.56294 10.6341 2.56294 10.75C2.56294 10.8659 2.60167 10.9626 2.67912 11.0401C2.75658 11.1175 2.85327 11.1562 2.96919 11.1562ZM5.40669 7.90625H8.59412C8.7095 7.90625 8.80592 7.86752 8.88337 7.79006C8.96083 7.7126 8.99983 7.61592 9.00037 7.5C9.00092 7.38408 8.96192 7.28739 8.88337 7.20994C8.80483 7.13248 8.70842 7.09375 8.59412 7.09375H5.40669C5.29077 7.09375 5.19408 7.13248 5.11662 7.20994C5.03917 7.28739 5.00044 7.38408 5.00044 7.5C5.00044 7.61592 5.03917 7.7126 5.11662 7.79006C5.19408 7.86752 5.29077 7.90625 5.40669 7.90625ZM7.84419 4.65625H11.0316C11.147 4.65625 11.2434 4.61752 11.3209 4.54006C11.3983 4.4626 11.4373 4.36592 11.4379 4.25C11.4384 4.13408 11.3994 4.0374 11.3209 3.95994C11.2423 3.88248 11.1459 3.84375 11.0316 3.84375H7.84337C7.728 3.84375 7.63158 3.88248 7.55412 3.95994C7.47667 4.0374 7.43794 4.13408 7.43794 4.25C7.43794 4.36592 7.47667 4.4626 7.55412 4.54006C7.63158 4.61752 7.72827 4.65625 7.84419 4.65625ZM1.813 14C1.43871 14 1.12644 13.8749 0.876187 13.6246C0.625937 13.3744 0.500542 13.0618 0.5 12.687V2.313C0.5 1.93871 0.625396 1.62644 0.876187 1.37619C1.12698 1.12594 1.43925 1.00054 1.813 1H12.1878C12.5616 1 12.8738 1.1254 13.1246 1.37619C13.3754 1.62698 13.5005 1.93925 13.5 2.313V12.6878C13.5 13.0616 13.3749 13.3738 13.1246 13.6246C12.8744 13.8754 12.5618 14.0005 12.187 14H1.813Z" stroke="#5C5C5C" stroke-width="0.2"/>
</svg>
