<svg width="15" height="15" viewBox="0 0 15 15" fill="none" xmlns="http://www.w3.org/2000/svg">
<path d="M14.2381 8.21904C14.1217 9.57257 13.6211 10.8647 12.7953 11.9434C11.9694 13.0221 10.8527 13.8425 9.57644 14.3081C8.30017 14.7737 6.91748 14.8651 5.59104 14.5715C4.26461 14.2779 3.0496 13.6117 2.08897 12.651C1.12834 11.6904 0.462055 10.4754 0.168499 9.14895C-0.125057 7.82251 -0.0336696 6.43983 0.431909 5.16356C0.897488 3.8873 1.71789 2.77055 2.79659 1.94471C3.8753 1.11887 5.16743 0.618288 6.52096 0.501862C6.59293 0.495925 6.66535 0.50422 6.73411 0.526275C6.80287 0.548329 6.86661 0.58371 6.9217 0.630398C6.97678 0.677087 7.02213 0.734167 7.05515 0.798381C7.08818 0.862595 7.10823 0.932685 7.11417 1.00465C7.12011 1.07661 7.11181 1.14904 7.08976 1.2178C7.0677 1.28656 7.03232 1.3503 6.98563 1.40538C6.93894 1.46047 6.88186 1.50582 6.81765 1.53884C6.75344 1.57187 6.68335 1.59192 6.61138 1.59786C5.46578 1.69629 4.37213 2.11987 3.4591 2.81877C2.54607 3.51767 1.85165 4.46281 1.45755 5.54298C1.06345 6.62315 0.986059 7.79341 1.23449 8.91607C1.48292 10.0387 2.04683 11.0671 2.85987 11.8801C3.67292 12.6932 4.70127 13.2571 5.82393 13.5055C6.94659 13.7539 8.11685 13.6766 9.19702 13.2824C10.2772 12.8883 11.2223 12.1939 11.9212 11.2809C12.6201 10.3679 13.0437 9.27421 13.1421 8.12862C13.1541 7.98328 13.2234 7.84866 13.3346 7.75437C13.4459 7.66007 13.59 7.61384 13.7353 7.62583C13.8807 7.63782 14.0153 7.70705 14.1096 7.8183C14.2039 7.92955 14.2501 8.0737 14.2381 8.21904ZM6.56617 3.78985V7.62583C6.56617 7.77117 6.62391 7.91055 6.72668 8.01332C6.82945 8.11609 6.96883 8.17383 7.11417 8.17383H10.9502C11.0955 8.17383 11.2349 8.11609 11.3376 8.01332C11.4404 7.91055 11.4981 7.77117 11.4981 7.62583C11.4981 7.48049 11.4404 7.34111 11.3376 7.23834C11.2349 7.13557 11.0955 7.07783 10.9502 7.07783H7.66217V3.78985C7.66217 3.64451 7.60443 3.50512 7.50166 3.40235C7.39889 3.29958 7.25951 3.24185 7.11417 3.24185C6.96883 3.24185 6.82945 3.29958 6.72668 3.40235C6.62391 3.50512 6.56617 3.64451 6.56617 3.78985ZM9.30616 2.14585C9.46873 2.14585 9.62766 2.09765 9.76284 2.00732C9.89801 1.917 10.0034 1.78862 10.0656 1.63842C10.1278 1.48822 10.1441 1.32295 10.1124 1.16349C10.0806 1.00404 10.0024 0.857577 9.8874 0.742619C9.77244 0.627661 9.62597 0.549373 9.46652 0.517656C9.30707 0.485939 9.1418 0.502218 8.9916 0.564433C8.8414 0.626648 8.71302 0.732005 8.62269 0.867181C8.53237 1.00236 8.48416 1.16128 8.48416 1.32386C8.48416 1.54187 8.57077 1.75094 8.72492 1.9051C8.87907 2.05925 9.08815 2.14585 9.30616 2.14585ZM11.7721 3.78985C11.9347 3.78985 12.0936 3.74164 12.2288 3.65132C12.364 3.56099 12.4694 3.43262 12.5316 3.28242C12.5938 3.13222 12.6101 2.96694 12.5784 2.80749C12.5466 2.64804 12.4683 2.50157 12.3534 2.38661C12.2384 2.27165 12.092 2.19337 11.9325 2.16165C11.7731 2.12993 11.6078 2.14621 11.4576 2.20843C11.3074 2.27064 11.179 2.376 11.0887 2.51117C10.9984 2.64635 10.9502 2.80528 10.9502 2.96785C10.9502 3.18586 11.0368 3.39494 11.1909 3.54909C11.3451 3.70324 11.5541 3.78985 11.7721 3.78985ZM13.4161 6.25584C13.5787 6.25584 13.7376 6.20763 13.8728 6.1173C14.008 6.02698 14.1134 5.8986 14.1756 5.7484C14.2378 5.5982 14.2541 5.43293 14.2223 5.27348C14.1906 5.11402 14.1123 4.96756 13.9974 4.8526C13.8824 4.73764 13.736 4.65935 13.5765 4.62764C13.4171 4.59592 13.2518 4.6122 13.1016 4.67441C12.9514 4.73663 12.823 4.84199 12.7327 4.97716C12.6424 5.11234 12.5941 5.27126 12.5941 5.43384C12.5941 5.65185 12.6807 5.86092 12.8349 6.01508C12.9891 6.16923 13.1981 6.25584 13.4161 6.25584Z" fill="#222222"/>
</svg>
