<svg width="18" height="18" viewBox="0 0 18 18" fill="none" xmlns="http://www.w3.org/2000/svg">
<path d="M16.3125 9C16.3125 10.4463 15.8836 11.8601 15.0801 13.0626C14.2766 14.2651 13.1346 15.2024 11.7984 15.7559C10.4622 16.3093 8.99189 16.4541 7.57341 16.172C6.15492 15.8898 4.85196 15.1934 3.82928 14.1707C2.80661 13.148 2.11017 11.8451 1.82801 10.4266C1.54586 9.00811 1.69067 7.53781 2.24413 6.20163C2.7976 4.86544 3.73486 3.72339 4.9374 2.91988C6.13993 2.11637 7.55373 1.6875 9 1.6875C10.9388 1.68955 12.7975 2.46063 14.1685 3.83154C15.5394 5.20246 16.3105 7.06123 16.3125 9ZM15.1875 9C15.1875 7.77623 14.8246 6.57994 14.1447 5.56241C13.4648 4.54488 12.4985 3.75181 11.3679 3.2835C10.2372 2.81518 8.99314 2.69264 7.79288 2.93139C6.59262 3.17014 5.49012 3.75944 4.62478 4.62478C3.75944 5.49011 3.17014 6.59262 2.93139 7.79288C2.69265 8.99314 2.81518 10.2372 3.2835 11.3679C3.75182 12.4985 4.54488 13.4648 5.56241 14.1447C6.57994 14.8246 7.77623 15.1875 9 15.1875C10.6405 15.1856 12.2132 14.5331 13.3732 13.3732C14.5331 12.2132 15.1856 10.6405 15.1875 9Z" fill="#374151"/>
</svg>
