<svg width="16" height="17" viewBox="0 0 16 17" fill="none" xmlns="http://www.w3.org/2000/svg">
<path d="M12 7.5V13.25C12 13.4142 11.9677 13.5767 11.9048 13.7284C11.842 13.88 11.75 14.0178 11.6339 14.1339C11.5178 14.25 11.38 14.342 11.2284 14.4048C11.0767 14.4677 10.9142 14.5 10.75 14.5H3.25C2.91848 14.5 2.60054 14.3683 2.36612 14.1339C2.1317 13.8995 2 13.5815 2 13.25V5.75C2 5.41848 2.1317 5.10054 2.36612 4.86612C2.60054 4.6317 2.91848 4.5 3.25 4.5H8.48375M10.5 2.5H14V6M7 9.5L13.75 2.75" stroke="#F5B963" stroke-linecap="round" stroke-linejoin="round"/>
</svg>
