<svg width="18" height="18" viewBox="0 0 18 18" fill="none" xmlns="http://www.w3.org/2000/svg">
<path d="M1.35833 4.5C1.35833 5.97276 2.55224 7.16667 4.025 7.16667C5.49776 7.16667 6.69167 5.97276 6.69167 4.5C6.69167 3.02724 5.49776 1.83333 4.025 1.83333C2.55224 1.83333 1.35833 3.02724 1.35833 4.5ZM10.8583 14C10.8583 15.4728 12.0522 16.6667 13.525 16.6667C14.9978 16.6667 16.1917 15.4728 16.1917 14C16.1917 12.5272 14.9978 11.3333 13.525 11.3333C12.0522 11.3333 10.8583 12.5272 10.8583 14ZM4.025 4.5H3.525C3.525 7.09594 3.4629 9.0369 3.53479 10.4358C3.60578 11.8172 3.80831 12.8584 4.48746 13.5375C5.1666 14.2167 6.20779 14.4192 7.58922 14.4902C8.9881 14.5621 10.9291 14.5 13.525 14.5V14V13.5C10.8756 13.5 9.00642 13.5617 7.64055 13.4915C6.25723 13.4204 5.57909 13.215 5.19456 12.8304C4.81003 12.4459 4.60456 11.7678 4.53347 10.3845C4.46327 9.01858 4.525 7.14938 4.525 4.5H4.025Z" fill="#374151"/>
</svg>
