<svg width="24" height="24" viewBox="0 0 24 24" fill="none" xmlns="http://www.w3.org/2000/svg">
<path d="M10.5361 13.1865L10.6152 13.3857L10.8145 13.4648L14.6543 15.001L10.8145 16.5371L10.6152 16.6162L10.5361 16.8154L9 20.6553L7.46387 16.8154L7.38477 16.6162L7.18555 16.5371L3.34473 15.001L7.18555 13.4648L7.38477 13.3857L7.46387 13.1865L9 9.3457L10.5361 13.1865ZM17.5332 6.1748L17.6133 6.3877L17.8252 6.46777L20.5771 7.5L17.8262 8.5332L17.6133 8.6123L17.5332 8.8252L16.5 11.5781L15.4678 8.8252L15.3887 8.6123L15.1758 8.5332L12.4219 7.5L15.1758 6.46777L15.3887 6.3877L15.4678 6.1748L16.5 3.42285L17.5332 6.1748Z" stroke="#222222"/>
</svg>
