<svg width="26" height="30" viewBox="0 0 26 30" fill="none" xmlns="http://www.w3.org/2000/svg">
<path d="M13.4569 28.6567L13.4422 28.6594L13.3476 28.706L13.3209 28.7114L13.3022 28.706L13.2076 28.6594C13.1934 28.6549 13.1827 28.6572 13.1756 28.666L13.1702 28.6794L13.1476 29.2499L13.1542 29.2766L13.1676 29.2939L13.3062 29.3926L13.3262 29.3979L13.3422 29.3926L13.4809 29.2939L13.4969 29.2726L13.5022 29.2499L13.4796 28.6807C13.476 28.6665 13.4685 28.6585 13.4569 28.6567ZM13.8102 28.5061L13.7929 28.5087L13.5462 28.6327L13.5329 28.646L13.5289 28.6607L13.5529 29.2339L13.5596 29.2499L13.5702 29.2593L13.8382 29.3832C13.8551 29.3877 13.868 29.3841 13.8769 29.3726L13.8822 29.3539L13.8369 28.5354C13.8325 28.5194 13.8236 28.5096 13.8102 28.5061ZM12.8569 28.5087C12.851 28.5052 12.844 28.504 12.8373 28.5055C12.8306 28.507 12.8247 28.511 12.8209 28.5167L12.8129 28.5354L12.7676 29.3539C12.7685 29.3699 12.776 29.3806 12.7902 29.3859L12.8102 29.3832L13.0782 29.2593L13.0916 29.2486L13.0969 29.2339L13.1196 28.6607L13.1156 28.6447L13.1022 28.6314L12.8569 28.5087Z" fill="#BE84FA"/>
<path d="M12.6667 0.984863C13.1638 0.984887 13.6432 1.17005 14.0112 1.50425C14.3793 1.83845 14.6096 2.29772 14.6573 2.79251L14.6667 2.98447V24.3136C14.6664 24.8271 14.4686 25.3209 14.1141 25.6925C13.7597 26.0642 13.2758 26.2852 12.7628 26.3099C12.2498 26.3346 11.7469 26.161 11.3584 25.8251C10.9699 25.4892 10.7256 25.0167 10.676 24.5056L10.6667 24.3136V2.98447C10.6667 2.45414 10.8774 1.94553 11.2525 1.57053C11.6275 1.19554 12.1362 0.984863 12.6667 0.984863ZM7.33333 4.98408C7.86377 4.98408 8.37247 5.19475 8.74755 5.56975C9.12262 5.94474 9.33333 6.45335 9.33333 6.98368V20.3144C9.33333 20.8447 9.12262 21.3533 8.74755 21.7283C8.37247 22.1033 7.86377 22.314 7.33333 22.314C6.8029 22.314 6.29419 22.1033 5.91912 21.7283C5.54405 21.3533 5.33333 20.8447 5.33333 20.3144V6.98368C5.33333 6.45335 5.54405 5.94474 5.91912 5.56975C6.29419 5.19475 6.8029 4.98408 7.33333 4.98408ZM18 4.98408C18.5304 4.98408 19.0391 5.19475 19.4142 5.56975C19.7893 5.94474 20 6.45335 20 6.98368V20.3144C20 20.8447 19.7893 21.3533 19.4142 21.7283C19.0391 22.1033 18.5304 22.314 18 22.314C17.4696 22.314 16.9609 22.1033 16.5858 21.7283C16.2107 21.3533 16 20.8447 16 20.3144V6.98368C16 6.45335 16.2107 5.94474 16.5858 5.56975C16.9609 5.19475 17.4696 4.98408 18 4.98408ZM2 8.98329C2.53043 8.98329 3.03914 9.19396 3.41421 9.56896C3.78929 9.94396 4 10.4526 4 10.9829V16.3152C4 16.8455 3.78929 17.3541 3.41421 17.7291C3.03914 18.1041 2.53043 18.3148 2 18.3148C1.46957 18.3148 0.960859 18.1041 0.585787 17.7291C0.210714 17.3541 0 16.8455 0 16.3152V10.9829C0 10.4526 0.210714 9.94396 0.585787 9.56896C0.960859 9.19396 1.46957 8.98329 2 8.98329ZM23.3333 8.98329C23.8305 8.98331 24.3099 9.16848 24.6779 9.50268C25.0459 9.83688 25.2763 10.2961 25.324 10.7909L25.3333 10.9829V16.3152C25.3331 16.8287 25.1352 17.3224 24.7808 17.6941C24.4263 18.0657 23.9425 18.2868 23.4294 18.3115C22.9164 18.3362 22.4136 18.1626 22.0251 17.8266C21.6366 17.4907 21.3922 17.0183 21.3427 16.5071L21.3333 16.3152V10.9829C21.3333 10.4526 21.544 9.94396 21.9191 9.56896C22.2942 9.19396 22.8029 8.98329 23.3333 8.98329Z" fill="#BE84FA"/>
</svg>
